<svg width="48" height="48" viewBox="0 0 48 48" fill="none" xmlns="http://www.w3.org/2000/svg"><path d="M24.0001 48.0002C37.255 48.0002 48.0002 37.255 48.0002 24.0001C48.0002 10.7452 37.255 0 24.0001 0C10.7452 0 0 10.7452 0 24.0001C0 37.255 10.7452 48.0002 24.0001 48.0002Z" fill="#53B3FC"/><path d="M24.0001 44.0002C35.0459 44.0002 44.0002 35.0459 44.0002 24.0001C44.0002 12.9544 35.0459 4 24.0001 4C12.9544 4 4.00003 12.9544 4.00003 24.0001C4.00003 35.0459 12.9544 44.0002 24.0001 44.0002Z" fill="#004CBE"/><path d="M30.6802 12.25C29.9002 12.25 29.1601 12.39 28.4701 12.65C27.6201 10.52 25.5401 9.01001 23.1101 9.01001C20.0101 9.01001 17.4801 11.46 17.3501 14.53C17.0001 14.46 16.6301 14.42 16.2601 14.42C13.2701 14.42 10.8501 16.84 10.8501 19.8301C10.8501 22.8201 13.2701 25.2401 16.2601 25.2401H30.6902C34.2802 25.2401 37.1802 22.3301 37.1802 18.7501C37.1802 15.17 34.2702 12.26 30.6902 12.26L30.6802 12.25Z" fill="#fff"/><path d="M20.0301 37.5003V20.4402M27.9701 37.5003V20.4402M20.0301 23.9102H27.9701M20.0301 28.8401H27.9701M20.0301 33.8899H27.9701" stroke="#53B3FC" stroke-width="2.89" stroke-miterlimit="10" stroke-linecap="round"/></svg>