<svg fill="none" height="60" viewBox="0 0 61 60" width="61" xmlns="http://www.w3.org/2000/svg"><rect fill="#e3f1fd" height="60" rx="30" width="60" x=".319" y=".006"/><g stroke="#000" stroke-linecap="round" stroke-linejoin="round" stroke-width="2"><path d="m39.0691 32.5063c1.8625-1.825 3.75-4.0125 3.75-6.875 0-1.8233-.7243-3.572-2.0136-4.8613s-3.038-2.0137-4.8614-2.0137c-2.2 0-3.75.625-5.625 2.5-1.875-1.875-3.425-2.5-5.625-2.5-1.8233 0-3.572.7244-4.8613 2.0137s-2.0137 3.038-2.0137 4.8613c0 2.875 1.875 5.0625 3.75 6.875l8.75 8.75z"/><path d="m30.3191 21.2563-3.7 3.7c-.2539.2522-.4555.5521-.5931.8825-.1375.3303-.2083.6847-.2083 1.0425 0 .3579.0708.7123.2083 1.0426.1376.3304.3392.6303.5931.8824 1.025 1.025 2.6625 1.0625 3.75.0875l2.5875-2.375c.6486-.5885 1.493-.9145 2.3688-.9145.8757 0 1.7202.326 2.3687.9145l3.7 3.325M37.8191 33.7563l-2.5-2.5M34.0691 37.5063l-2.5-2.5"/></g></svg>