<?xml version="1.0" encoding="UTF-8"?><!DOCTYPE svg PUBLIC "-//W3C//DTD SVG 1.1//EN" "http://www.w3.org/Graphics/SVG/1.1/DTD/svg11.dtd"><svg xmlns="http://www.w3.org/2000/svg" xmlns:xlink="http://www.w3.org/1999/xlink"><defs/><symbol id="program-work" viewBox="0 0 48 48"><ellipse cx="20" cy="33" rx="17" ry="12" fill="currentColor"/><circle cx="20" cy="12" r="10" fill="currentColor"/><path d="M33.8748 45.4893C39.4669 45.4893 44.0002 40.956 44.0002 35.364C44.0002 29.7719 39.4669 25.2386 33.8748 25.2386C28.2828 25.2386 23.7495 29.7719 23.7495 35.364C23.7495 40.956 28.2828 45.4893 33.8748 45.4893Z" stroke="currentColor" stroke-width="2.25" fill="#FFF"/><path d="M34.0269 35.6695H32.7769V36.1999L33.1583 36.5685L34.0269 35.6695ZM33.1583 36.5685L37.6791 40.9362L39.4161 39.1382L34.8954 34.7706L33.1583 36.5685ZM35.2769 35.6695V27.9128H32.7769V35.6695H35.2769Z" fill="currentColor"/></symbol><symbol id="program-people-with-disabilities" viewBox="0 0 48 48"><path d="M23.8835 2 32.3301 8.30435 42.3786 5.22222 38.7379 14.8889 45 23.1546 34.2233 22.8744 27.9612 31 25.0485 21.1932 15 17.971 23.7379 12.2271 23.8835 2ZM8.6443 25 14.698 29.48 22.0805 27.38 19.4228 34.24 24 40.26 16.1745 39.98 11.5973 46 9.38255 38.86 2 36.48 8.49665 32.42 8.6443 25V25Z" fill="currentColor"/></symbol><symbol id="program-housing" viewBox="0 0 42 44"><g id="Page-1" stroke="none" stroke-width="1" fill="none" fill-rule="evenodd"><g id="icon-housing-v2" transform="translate(-4 -2)" fill-rule="nonzero"><path id="Rectangle" d="M0 0H48V48H0z"/><path id="Shape" fill="currentColor" d="M27 46 4 46 4 31.1685 15.5 23 26.8544 31.0124 27 31.1685z"/><path id="Shape" fill="#FFF" d="M10 39 10 43 14 43 14 39zM10 32 10 36 14 36 14 32zM17 39 17 43 21 43 21 39zM17 32 17 36 21 36 21 32z"/><path id="Shape" fill="currentColor" d="M44 4 25 4 25 46 44 46z"/><path id="Shape" fill="#FFF" d="M40 39 36 39 36 43 40 43zM33 39 29 39 29 43 33 43zM40 31 36 31 36 35 40 35zM33 31 29 31 29 35 33 35zM40 23 36 23 36 27 40 27zM33 23 29 23 29 27 33 27zM40 15 36 15 36 19 40 19zM33 15 29 15 29 19 33 19zM40 7 36 7 36 11 40 11zM33 7 29 7 29 11 33 11z"/><path id="Rectangle-path" fill="currentColor" d="M23 2H46V4H23z"/></g></g></symbol><symbol id="program-health" viewBox="0 0 48 48"><path d="M42.2254 26.5514L24 45L5.7746 26.5514C0.741798 21.457 0.7418 13.1973 5.7746 8.10285C10.8074 3.00841 18.9672 4.63622 24 9.73065C29.0328 4.63622 37.1926 3.00841 42.2254 8.10285C47.2582 13.1973 47.2582 21.457 42.2254 26.5514Z" fill="currentColor"/><path fill="#FFF" d="M21 16H27V32H21z"/><path transform="rotate(90 32 21)" fill="#FFF" d="M32 21H38V37H32z"/></symbol><symbol id="program-food" viewBox="0 0 48 48"><path d="M24.9399 8.16528C23.5077 3.78992 19.0354 1.8064 14.8354 2.41819 15.2599 6.64979 18.0457 10.5455 22.3283 11.1565 24.8452 11.5155 25.7369 10.5999 24.9399 8.16528ZM31.7652 12.6899C28.2606 12.6899 25.5274 13.408 24.1069 15.5621 22.6865 13.408 19.9533 12.6899 16.4487 12.6899-4.30152 12.6899 5.64142 45.72 18.4254 45.72 21.2662 45.72 22.6865 44.3004 24.107 44.3004 25.5274 44.3004 26.9479 45.72 29.7885 45.72 41.8622 45.72 52.5154 12.6899 31.7652 12.6899Z" fill="currentColor"/></symbol><symbol id="program-family-services" viewBox="0 0 48 48"><ellipse cx="24" cy="32" rx="17" ry="13" fill="currentColor"/><circle cx="24" cy="12" r="9" fill="currentColor"/><path fill-rule="evenodd" clip-rule="evenodd" d="M15.9033 43.3264C15.3869 42.4809 15.0991 41.5405 15.0991 40.5496C15.0991 36.8629 19.0841 33.8741 23.9998 33.8741C28.9155 33.8741 32.9005 36.8629 32.9005 40.5496C32.9005 41.5404 32.6127 42.4808 32.0964 43.3262C29.6985 44.3926 26.9377 45 23.9997 45C21.0617 45 18.3011 44.3927 15.9033 43.3264Z" fill="#FFF"/><circle cx="24" cy="30" r="5" fill="#FFF"/></symbol><symbol id="program-enrichment" viewBox="0 0 48 48"><path d="M24.0001 34.2666C29.6702 34.2666 34.2667 29.6701 34.2667 23.9999C34.2667 18.3298 29.6702 13.7333 24.0001 13.7333C18.3299 13.7333 13.7334 18.3298 13.7334 23.9999C13.7334 29.6701 18.3299 34.2666 24.0001 34.2666Z" fill="currentColor"/><path stroke="currentColor" stroke-width="3" stroke-linecap="round" d="M24 3 24 10M45 24 38 24M24 38 24 45M10 24 3 24M39.127 8.821 34.319 13.629M13.2 34.748 8.391 39.556M39.179 39.127 34.371 34.318M13.252 13.2 8.443 8.391"/></symbol><symbol id="program-education" viewBox="0 0 48 48"><path d="M37.7638 23.4844V29.6768C37.7638 30.4331 37.3372 31.1248 36.6613 31.4641L24.8974 37.3711C24.3327 37.6546 23.6672 37.6546 23.1025 37.3711L11.3386 31.4641C10.6627 31.1248 10.2361 30.4331 10.2361 29.6768V23.4844L23.9999 30.3663 37.7638 23.4844ZM8 19H7V34H8V19ZM7.49223 34 9.73447 39.9793H5.25L7.49223 34V34Z" fill="currentColor"/><path d="M23.757 8.05631C23.9107 7.98123 24.0893 7.98123 24.2431 8.05631L44.3238 17.8607C44.7543 18.0709 44.7528 18.6993 44.3213 18.9074L24.2407 28.5907C24.0883 28.6642 23.9118 28.6642 23.7594 28.5907L3.67873 18.9074C3.24723 18.6993 3.24576 18.0709 3.67628 17.8607L23.757 8.05631Z" fill="currentColor"/><path d="M24.0001 20.0434C24.792 20.0434 25.4339 19.4015 25.4339 18.6096C25.4339 17.8178 24.792 17.1759 24.0001 17.1759C23.2083 17.1759 22.5664 17.8178 22.5664 18.6096C22.5664 19.4015 23.2083 20.0434 24.0001 20.0434Z" fill="#FFF"/><circle cx="7.5" cy="34.5" r="1.5" fill="currentColor"/></symbol><symbol id="program-city-id-card" viewBox="0 0 48 48"><rect x="2" y="10" width="44" height="28" rx="1" fill="currentColor"/><path d="M42 26H27V29H42V26ZM42 19H27V22H42V19ZM6 15H23V33H6z" fill="#FFF"/><path d="M7 33.0001C7 32.8412 7 32.5235 7 32.3647C7 28.5519 10.314 25.5334 14.5 25.5334C18.686 25.5334 22 28.5519 22 32.3647C22 32.5235 22 32.8412 22 33.0001" fill="currentColor"/><path d="M14.4999 26.0667C17.0147 26.0667 19.0534 24.037 19.0534 21.5333C19.0534 19.0296 17.0147 17 14.4999 17C11.985 17 9.94629 19.0296 9.94629 21.5333C9.94629 24.037 11.985 26.0667 14.4999 26.0667Z" fill="currentColor"/></symbol><symbol id="program-child-care" viewBox="0 0 48 50"><path d="M18.3076 23.5215 8.94318 28.1483M30.4553 23.5215 39.9716 28.2418" stroke="currentColor" stroke-width="7.5" stroke-linecap="round"/><path d="M31.3232 37.4048 39.9717 42.0316M17.4399 37.4048 9.08359 42.2928" stroke="currentColor" stroke-width="10" stroke-linecap="round"/><path d="M28.0884 41.743H20.6743C15.9977 41.743 12.2336 37.5839 12.2336 32.4165V28.5095C12.2336 23.3421 15.9977 19.183 20.6743 19.183H28.0884C32.765 19.183 36.5291 23.3421 36.5291 28.5095V32.4165C36.5291 37.5839 32.6509 41.743 28.0884 41.743V41.743Z" fill="currentColor"/><path d="M25.2495 40.0076H23.5141C20.1737 40.0076 15.7048 36.4883 15.7048 32.1159V28.81C15.7048 24.4376 18.3935 20.9183 21.7339 20.9183H27.0297C30.3701 20.9183 33.0587 24.4376 33.0587 28.81V32.1159C33.0587 36.4883 28.5084 40.0076 25.2495 40.0076Z" fill="#FFF"/><path d="M13.1017 10.506C15.4977 10.506 17.4401 8.56364 17.4401 6.16757 17.4401 3.7715 15.4977 1.8291 13.1017 1.8291 10.7056 1.8291 8.76318 3.7715 8.76318 6.16757 8.76318 8.56364 10.7056 10.506 13.1017 10.506ZM35.6617 10.506C38.0578 10.506 40.0002 8.56364 40.0002 6.16757 40.0002 3.7715 38.0578 1.8291 35.6617 1.8291 33.2656 1.8291 31.3232 3.7715 31.3232 6.16757 31.3232 8.56364 33.2656 10.506 35.6617 10.506Z" fill="currentColor"/><path d="M24.3814 22.6538C19.7048 22.6538 12.2336 18.0761 12.2336 13.5136V10.0639C12.2336 5.50136 15.9977 1.8291 20.6743 1.8291H28.0884C32.765 1.8291 36.5291 5.50136 36.5291 10.0639V13.5136C36.5291 18.0761 28.9439 22.6538 24.3814 22.6538Z" fill="currentColor"/><circle cx="19.5" cy="8.5" r="1.5" fill="#FFF"/><circle cx="29.5" cy="8.5" r="1.5" fill="#FFF"/><ellipse cx="24.5" cy="16.5" rx="5.5" ry="4.5" fill="#FFF"/><circle cx="24.5" cy="15.5" r="1.5" fill="currentColor"/></symbol><symbol id="program-cash-expenses" viewBox="0 0 48 48"><rect x="2" y="10" width="44" height="28" rx="1" fill="currentColor"/><circle cx="24" cy="24" r="11" fill="#FFF"/><path d="M20 27.9189C20 27.9189 21.5909 29 23.8182 29 25.0909 29 27 28.4595 27 26.8378 27 25.4865 25.9081 24.8876 23.5 23.8649 23.3139 23.7858 22.8636 23.5946 22.2273 23.3243 20.9545 22.7838 20.6364 21.973 20.6364 21.1622 20.6364 20.187 21.5909 19 23.8182 19 25.3455 19 26.5758 19.7207 27 20.0811M24 19 24 16M24 32 24 29" stroke="currentColor" stroke-width="3" fill="transparent"/></symbol><symbol id="program-card-work" viewBox="0 0 48 48"><path d="M24 48C37.2548 48 48 37.2548 48 24C48 10.7452 37.2548 0 24 0C10.7452 0 0 10.7452 0 24C0 37.2548 10.7452 48 24 48Z"/><path d="M24 44C35.0457 44 44 35.0457 44 24C44 12.9543 35.0457 4 24 4C12.9543 4 4 12.9543 4 24C4 35.0457 12.9543 44 24 44Z" fill="currentColor"/><ellipse cx="21.5" cy="29" rx="10.5" ry="8" fill="#fff"/><circle cx="21.5" cy="15.5" r="6.5" fill="#fff"/><path d="M30.5 37.75C34.5041 37.75 37.75 34.5041 37.75 30.5C37.75 26.4959 34.5041 23.25 30.5 23.25C26.4959 23.25 23.25 26.4959 23.25 30.5C23.25 34.5041 26.4959 37.75 30.5 37.75Z" fill="currentColor" stroke="#fff" stroke-width="1.5"/><path d="M30.5178 30.7789H29.7678V31.1099L30.0123 31.3329L30.5178 30.7789ZM30.0123 31.3329L32.9945 34.054L34.0055 32.946L31.0233 30.2249L30.0123 31.3329ZM31.2678 30.7789V25.5H29.7678V30.7789H31.2678Z" fill="#fff"/></symbol><symbol id="program-card-people-with-disabilities" viewBox="0 0 48 48"><path d="M24 48C37.2548 48 48 37.2548 48 24C48 10.7452 37.2548 0 24 0C10.7452 0 0 10.7452 0 24C0 37.2548 10.7452 48 24 48Z"/><path d="M24 44C35.0457 44 44 35.0457 44 24C44 12.9543 35.0457 4 24 4C12.9543 4 4 12.9543 4 24C4 35.0457 12.9543 44 24 44Z" fill="currentColor"/><path d="M24.1209 10 29.3766 14.0777 35.6291 12.0842 33.3637 18.3367 37.2602 23.6831 30.5546 23.5018 26.6581 28.7576 24.8458 22.4145 18.5933 20.3303 24.0302 16.615 24.1209 10V10ZM14.4305 24.4075 18.1458 27.3072 22.6766 25.948 21.0455 30.3882 23.8546 34.2847 19.052 34.1034 16.2429 37.9999 14.8836 33.3785 10.3528 31.838 14.3399 29.2101 14.4305 24.4075V24.4075Z" fill="#fff"/></symbol><symbol id="program-card-housing" viewBox="0 0 48 48"><path d="M24 48C37.2548 48 48 37.2548 48 24C48 10.7452 37.2548 0 24 0C10.7452 0 0 10.7452 0 24C0 37.2548 10.7452 48 24 48Z"/><path d="M24 44C35.0457 44 44 35.0457 44 24C44 12.9543 35.0457 4 24 4C12.9543 4 4 12.9543 4 24C4 35.0457 12.9543 44 24 44Z" fill="currentColor"/><path d="M33 13H23V35H33V13Z" fill="#fff"/><path d="M27 27H25V29H27V27ZM27 31H25V33H27V31ZM31 27H29V29H31V27ZM31 31H29V33H31V31ZM27 23H25V25H27V23ZM31 23H29V25H31V23ZM27 19H25V21H27V19ZM31 19H29V21H31V19ZM27 15H25V17H27V15ZM31 15H29V17H31V15Z" fill="currentColor"/><path d="M24 35H12V26.9394L18 22.5L23.9241 26.8545L24 26.9394V35Z" fill="#fff"/><path d="M19 27 19 29 21 29 21 27 19 27ZM19 31 19 33 21 33 21 31 19 31ZM15 27 15 29 17 29 17 27 15 27ZM15 31 15 33 17 33 17 31 15 31Z" fill="currentColor"/><path fill="#fff" d="M22 12H34V13H22z"/></symbol><symbol id="program-card-health" viewBox="0 0 48 48"><path d="M24 48C37.2548 48 48 37.2548 48 24C48 10.7452 37.2548 0 24 0C10.7452 0 0 10.7452 0 24C0 37.2548 10.7452 48 24 48Z"/><path d="M24 44C35.0457 44 44 35.0457 44 24C44 12.9543 35.0457 4 24 4C12.9543 4 4 12.9543 4 24C4 35.0457 12.9543 44 24 44Z" fill="currentColor"/><path d="M35.3334 26.6668L24 38.0001L12.6666 26.6668C9.53701 23.5371 9.53701 18.463 12.6666 15.3334C15.7963 12.2038 20.8704 13.2038 24 16.3334C27.1296 13.2038 32.2037 12.2038 35.3334 15.3334C38.463 18.463 38.463 23.5371 35.3334 26.6668Z" fill="#fff"/><path fill="currentColor" d="M22 20H26V30H22z"/><path transform="rotate(90 29 23)" fill="currentColor" d="M29 23H33V33H29z"/></symbol><symbol id="program-card-food" viewBox="0 0 48 48"><path d="M24 48C37.2548 48 48 37.2548 48 24C48 10.7452 37.2548 0 24 0C10.7452 0 0 10.7452 0 24C0 37.2548 10.7452 48 24 48Z"/><path d="M24 44C35.0457 44 44 35.0457 44 24C44 12.9543 35.0457 4 24 4C12.9543 4 4 12.9543 4 24C4 35.0457 12.9543 44 24 44Z" fill="currentColor"/><path d="M24.626 12.9863C23.6721 10.072 20.6933 8.75087 17.8958 9.15836 18.1786 11.9769 20.0341 14.5716 22.8866 14.9786 24.563 15.2177 25.1569 14.6079 24.626 12.9863ZM29.1721 16C26.8378 16 25.0174 16.4783 24.0713 17.913 23.1252 16.4783 21.3047 16 18.9704 16 5.14953 16 11.7721 38 20.287 38 22.1792 38 23.1252 37.0544 24.0713 37.0544 25.0174 37.0544 25.9635 38 27.8556 38 35.8973 38 42.993 16 29.1721 16Z" fill="#fff"/></symbol><symbol id="program-card-family-services" viewBox="0 0 48 48"><path d="M24 48C37.2548 48 48 37.2548 48 24C48 10.7452 37.2548 0 24 0C10.7452 0 0 10.7452 0 24C0 37.2548 10.7452 48 24 48Z"/><path d="M24 44C35.0457 44 44 35.0457 44 24C44 12.9543 35.0457 4 24 4C12.9543 4 4 12.9543 4 24C4 35.0457 12.9543 44 24 44Z" fill="currentColor"/><ellipse cx="24" cy="29.5" rx="11" ry="8.5" fill="#fff"/><circle cx="24" cy="16" r="6" fill="#fff"/><ellipse cx="24" cy="35.5" rx="6" ry="4.5" fill="currentColor"/><circle cx="24" cy="28" r="4" fill="currentColor"/></symbol><symbol id="program-card-enrichment" viewBox="0 0 48 48"><path d="M24 48C37.2548 48 48 37.2548 48 24C48 10.7452 37.2548 0 24 0C10.7452 0 0 10.7452 0 24C0 37.2548 10.7452 48 24 48Z"/><path d="M24 44C35.0457 44 44 35.0457 44 24C44 12.9543 35.0457 4 24 4C12.9543 4 4 12.9543 4 24C4 35.0457 12.9543 44 24 44Z" fill="currentColor"/><path d="M24 31C27.866 31 31 27.866 31 24C31 20.134 27.866 17 24 17C20.134 17 17 20.134 17 24C17 27.866 20.134 31 24 31Z" fill="#fff"/><path stroke="#fff" stroke-width="2" stroke-linecap="round" d="M24 10 24 14M38 24 34 24M24 34 24 38M14 24 10 24M34.314 14.101 31.485 16.929M16.636 31.778 13.808 34.607M33.9 34.314 31.071 31.485M16.222 16.636 13.393 13.808"/></symbol><symbol id="program-card-education" viewBox="0 0 48 48"><path d="M24 48C37.2548 48 48 37.2548 48 24C48 10.7452 37.2548 0 24 0C10.7452 0 0 10.7452 0 24C0 37.2548 10.7452 48 24 48Z"/><path d="M24 44C35.0457 44 44 35.0457 44 24C44 12.9543 35.0457 4 24 4C12.9543 4 4 12.9543 4 24C4 35.0457 12.9543 44 24 44Z" fill="currentColor"/><path d="M31 21C32.1046 21 33 21.8954 33 23V27.0263C33 27.7668 32.5909 28.4467 31.9366 28.7934L24.9366 32.5036C24.3508 32.8141 23.6492 32.8141 23.0634 32.5036L16.0634 28.7934C15.4091 28.4467 15 27.7668 15 27.0263V23C15 21.8954 15.8954 21 17 21H31ZM14 21H13V31H14V21Z" fill="#fff"/><path d="M13.5 30L15 34H12L13.5 30V30Z" fill="#fff"/><path d="M37.7914 19.0173L24.4303 12.6511C24.1581 12.5214 23.8421 12.5214 23.57 12.6511L10.2089 19.0173C9.44703 19.3803 9.44964 20.4655 10.2132 20.8248L23.5743 27.1124C23.844 27.2393 24.1562 27.2393 24.4259 27.1124L37.787 20.8248C38.5506 20.4655 38.5532 19.3803 37.7914 19.0173Z" fill="#fff" stroke="currentColor"/><path d="M24 21C24.5523 21 25 20.5523 25 20C25 19.4477 24.5523 19 24 19C23.4477 19 23 19.4477 23 20C23 20.5523 23.4477 21 24 21Z" fill="currentColor"/><circle cx="13.5" cy="31" r="1" fill="#fff"/></symbol><symbol id="program-card-city-id-card" viewBox="0 0 48 48"><path d="M24 48C37.2548 48 48 37.2548 48 24C48 10.7452 37.2548 0 24 0C10.7452 0 0 10.7452 0 24C0 37.2548 10.7452 48 24 48Z"/><path d="M24 44C35.0457 44 44 35.0457 44 24C44 12.9543 35.0457 4 24 4C12.9543 4 4 12.9543 4 24C4 35.0457 12.9543 44 24 44Z" fill="currentColor"/><rect x="10" y="15" width="28" height="18" rx="1" fill="#fff"/><path d="M35 25H27V27H35V25ZM35 21H27V23H35V21Z" fill="currentColor"/><path d="M13 18H25V30H13z"/><path d="M14 30C14 29.8922 14 29.6765 14 29.5686C14 26.9803 16.2093 24.9312 19 24.9312C21.7907 24.9312 24 26.9803 24 29.5686C24 29.6765 24 29.8922 24 30" fill="currentColor"/><path d="M19 25.5C20.6569 25.5 22 24.1569 22 22.5C22 20.8431 20.6569 19.5 19 19.5C17.3431 19.5 16 20.8431 16 22.5C16 24.1569 17.3431 25.5 19 25.5Z" fill="currentColor"/></symbol><symbol id="program-card-child-care" viewBox="0 0 48 48"><path d="M24 48C37.2548 48 48 37.2548 48 24C48 10.7452 37.2548 0 24 0C10.7452 0 0 10.7452 0 24C0 37.2548 10.7452 48 24 48Z"/><path d="M24 44C35.0457 44 44 35.0457 44 24C44 12.9543 35.0457 4 24 4C12.9543 4 4 12.9543 4 24C4 35.0457 12.9543 44 24 44Z" fill="currentColor"/><path d="M20.3516 23.03 14.7266 25.8092M27.6484 23.03 33.3646 25.8654" stroke="#fff" stroke-width="4.5" stroke-linecap="round"/><path d="M28.1697 31.3694 33.3646 34.1486M19.8303 31.3694 14.8109 34.3055" stroke="#fff" stroke-width="6" stroke-linecap="round"/><path d="M26.2267 33.9754H21.7732C18.9641 33.9754 16.7031 31.4771 16.7031 28.3731V26.0263C16.7031 22.9224 18.9641 20.4241 21.7732 20.4241H26.2267C29.0358 20.4241 31.2968 22.9224 31.2968 26.0263V28.3731C31.2968 31.4771 28.9673 33.9754 26.2267 33.9754V33.9754Z" fill="#fff"/><path d="M24.5213 32.9329H23.4789C21.4724 32.9329 18.7881 30.819 18.7881 28.1926V26.2068C18.7881 23.5804 20.4031 21.4664 22.4096 21.4664H25.5906C27.5972 21.4664 29.2121 23.5804 29.2121 26.2068V28.1926C29.2121 30.819 26.4789 32.9329 24.5213 32.9329Z" fill="currentColor"/><path d="M17.2244 15.212C18.6637 15.212 19.8304 14.0453 19.8304 12.606 19.8304 11.1668 18.6637 10 17.2244 10 15.7852 10 14.6184 11.1668 14.6184 12.606 14.6184 14.0453 15.7852 15.212 17.2244 15.212ZM30.7757 15.212C32.215 15.212 33.3817 14.0453 33.3817 12.606 33.3817 11.1668 32.215 10 30.7757 10 29.3364 10 28.1697 11.1668 28.1697 12.606 28.1697 14.0453 29.3364 15.212 30.7757 15.212Z" fill="#fff"/><path d="M24 22.5089C21.1909 22.5089 16.7031 19.7592 16.7031 17.0186V14.9464C16.7031 12.2058 18.9641 10 21.7732 10H26.2267C29.0358 10 31.2968 12.2058 31.2968 14.9464V17.0186C31.2968 19.7592 26.7406 22.5089 24 22.5089Z" fill="#fff"/><circle cx="21" cy="14" r="1" fill="currentColor"/><circle cx="27" cy="14" r="1" fill="currentColor"/><ellipse cx="24" cy="18.5" rx="3" ry="2.5" fill="currentColor"/><circle cx="24" cy="18" r="1" fill="#fff"/></symbol><symbol id="program-card-cash-expenses" viewBox="0 0 48 48"><path d="M24 48C37.2548 48 48 37.2548 48 24C48 10.7452 37.2548 0 24 0C10.7452 0 0 10.7452 0 24C0 37.2548 10.7452 48 24 48Z"/><path d="M24 44C35.0457 44 44 35.0457 44 24C44 12.9543 35.0457 4 24 4C12.9543 4 4 12.9543 4 24C4 35.0457 12.9543 44 24 44Z" fill="currentColor"/><path d="M23.5 32C27.6421 32 31 28.6421 31 24.5C31 20.3579 27.6421 17 23.5 17C19.3579 17 16 20.3579 16 24.5C16 28.6421 19.3579 32 23.5 32Z" fill="currentColor"/><rect x="10" y="15" width="28" height="18" rx="1" fill="#fff"/><circle cx="24" cy="24" r="8" fill="currentColor"/><path d="M21 27.1351C21 27.1351 22.3636 28 24.2727 28C25.3636 28 27 27.5676 27 26.2703C27 25.1892 26.0641 24.7101 24 23.8919C23.8405 23.8287 23.4545 23.6757 22.9091 23.4595C21.8182 23.027 21.5455 22.3784 21.5455 21.7297C21.5455 20.9496 22.3636 20 24.2727 20C25.5818 20 26.6364 20.5766 27 20.8649" stroke="#fff" stroke-width="1.5" fill="transparent"/><path d="M24 20 24 18M24 30 24 28" stroke="#fff" stroke-width="1.5"/></symbol><symbol id="logo-nyc" viewBox="0 0 456 152"><path d="M446.505 66.3803 456 57.0104V28.5052L427.495 0H332.505L304 28.5052V9.51562L294.505 0H256.505L247.01 9.51562V28.5052L228 47.5156 209.01 28.5052V9.51562L199.495 0H161.495L152 9.51562 142.505 0H104.505L95.0104 9.51562V47.5156L47.4948 0H9.49479L0 9.51562V142.505L9.49479 152H47.4948L57.0104 142.505V104.505L104.505 152H142.505L152 142.505V66.5052L199.495 114V142.505L209.01 152H247.01L256.505 142.505V114L304 66.5052V123.516L332.505 152H427.495L456 123.516V95.0104L446.505 85.4948H398.99V95.0104H361.01V57.0104H398.99V66.3803H446.505ZM449.233 6.41315C450.128 6.41315 450.899 6.32986 450.899 5.28876 450.899 4.41424 450.045 4.31013 449.337 4.31013H447.9V6.41315H449.233ZM447.921 10.4942H446.734V3.31068H449.462C451.19 3.31068 452.085 3.91452 452.085 5.37205 452.085 6.68383 451.294 7.20438 450.211 7.32931L452.231 10.4942H450.899L449.045 7.4126H447.942V10.4942H447.921ZM449.191 1.41589C446.38 1.41589 444.194 3.62301 444.194 6.78794 444.194 9.74466 446.11 12.16 449.191 12.16 451.981 12.16 454.168 9.9737 454.168 6.78794 454.168 3.62301 451.981 1.41589 449.191 1.41589ZM449.191 13.2844C445.464 13.2844 442.799 10.4942 442.799 6.78794 442.799 2.87342 445.756.291504 449.191.291504 452.585.291504 455.542 2.87342 455.542 6.78794 455.563 10.6816 452.606 13.2844 449.191 13.2844Z" fill="currentColor"/></symbol><symbol id="icon-nyco-translate" viewBox="0 0 24 24"><path d="M3 16C4.5 15.1667 8 12.5 10 9.5C12 6.5 11.5 4 11.5 4M14.5 4H8.5M2.5 4H8.5M8.5 4V2.5M4.5 7C5.5 10 7.5 12.5 10 14.5M12 21L13.35 18M21 21L19.65 18M13.35 18L16.5 10.5C17.7302 13.2337 18.4198 15.2663 19.65 18M13.35 18H19.65"/></symbol><symbol id="icon-nyco-accessible" viewBox="0 0 24 24"><path d="M20.0888 10.975C19.8251 10.7044 19.4566 10.5616 19.0801 10.5822L14.5227 10.8359 17.0307 7.97945C17.388 7.57256 17.4901 7.03016 17.352 6.54548 17.2791 6.21336 17.0779 5.91117 16.7689 5.7181 16.7595 5.71133 10.7739 2.23419 10.7739 2.23419 10.2852 1.95027 9.66928 2.01282 9.24749 2.38903L6.32364 4.99716C5.78494 5.47765 5.73777 6.30387 6.21829 6.8426 6.69886 7.38126 7.52511 7.42858 8.06377 6.94791L10.2805 4.97059 12.113 6.03475 8.8783 9.71873C7.53699 9.93748 6.33014 10.5556 5.38275 11.4467L7.07193 13.1359C7.83553 12.4416 8.84942 12.0178 9.96041 12.0178 12.3301 12.0178 14.2581 13.9458 14.2581 16.3155 14.2581 17.4265 13.8343 18.4403 13.14 19.2039L14.8291 20.8931C15.9543 19.6969 16.6449 18.0874 16.6449 16.3155 16.6449 15.2599 16.3998 14.2616 15.964 13.3738L17.7281 13.2756 17.299 18.5394C17.2403 19.2589 17.7761 19.8896 18.4956 19.9483 18.5316 19.9513 18.5676 19.9527 18.6032 19.9527 19.2769 19.9527 19.8489 19.435 19.9045 18.7517L20.4553 11.9935C20.4861 11.6169 20.3524 11.2455 20.0888 10.975ZM17.668 5.37585C18.8763 5.37585 19.8557 4.39632 19.8557 3.18794 19.8557 1.97963 18.8763 1 17.668 1 16.4596 1 15.4801 1.97963 15.4801 3.18794 15.4801 4.39632 16.4595 5.37585 17.668 5.37585ZM9.96055 20.6132C7.59079 20.6132 5.66283 18.6852 5.66283 16.3155 5.66283 15.4224 5.93685 14.5923 6.40493 13.9043L4.69752 12.1969C3.80786 13.3322 3.276 14.7614 3.276 16.3155 3.276 20.0073 6.26874 23 9.96055 23 11.5147 23 12.9438 22.4681 14.079 21.5785L12.3717 19.8711C11.6837 20.3391 10.8536 20.6132 9.96055 20.6132Z" fill="currentColor"/></symbol><symbol id="favicon"><path id="favicon" d="M262.562 8.28859V24.4295V56.7114L221.428 97.2819V121.711L213.113 130H237.619L262.125 154.43V178.859L253.81 186.711H212.676V178.859H179.855V211.141H212.676V202.852H253.81L262.125 211.141V235.57L237.619 260H155.787L131.281 234.698V153.993L155.787 129.564H180.293L171.978 121.275V96.8456L131.281 56.7114V121.275L122.967 129.564H90.1464L49.0116 88.9933V121.275L40.6972 129.564H8.31448L0 121.275V7.85235L8.31448 0H41.1348L82.2695 40.5705V8.28859L90.1464 0H122.967L131.281 8.28859L139.596 0H172.416L180.73 8.28859V24.4295L196.922 40.5705L213.551 24.4295V8.28859L221.428 0H254.248L262.562 8.28859ZM257.311 140.47C254.248 140.47 251.622 138.289 251.622 134.799C251.622 131.309 254.248 129.128 257.311 129.128C260.374 129.128 263 131.309 263 134.799C262.562 138.289 259.937 140.47 257.311 140.47ZM257.311 130.436C254.686 130.436 252.935 132.181 252.935 134.799C252.935 137.416 254.686 139.597 257.311 139.597C259.937 139.597 261.687 137.852 261.687 134.799C261.25 132.181 259.499 130.436 257.311 130.436ZM255.998 138.289H255.123V132.181H257.311C258.624 132.181 259.499 132.617 259.499 133.926C259.499 135.235 258.624 135.671 257.749 135.671L259.499 138.289H258.186L256.436 135.671H255.561V138.289H255.998ZM257.311 134.799C258.186 134.799 258.624 134.799 258.624 133.926C258.624 133.054 257.749 133.054 257.311 133.054H255.998V134.799H257.311Z"/><style>#favicon{fill:#217ceb}@media (prefers-color-scheme:light){#favicon{fill:#004cbe}}</style></symbol></svg>