<svg width="48" height="48" viewBox="0 0 48 48" fill="none" xmlns="http://www.w3.org/2000/svg"><path d="M24 48C37.2548 48 48 37.2548 48 24C48 10.7452 37.2548 0 24 0C10.7452 0 0 10.7452 0 24C0 37.2548 10.7452 48 24 48Z" fill="#53B3FC"/><path d="M24 44C35.0457 44 44 35.0457 44 24C44 12.9543 35.0457 4 24 4C12.9543 4 4 12.9543 4 24C4 35.0457 12.9543 44 24 44Z" fill="#004CBE"/><path d="M22.32 30.86 25.81 36 27.86 24.46H38.87M35.64 33.13 31.67 29.01M31.67 33.22 35.64 29.01M11 15V21.76M15.71 22.0801 11 22.1001M15.71 15H11M15.5 18.55H11M18.61 22.09V15L24.42 22.1V15" stroke="#fff" stroke-width="2" stroke-linecap="round" stroke-linejoin="round"/></svg>