<?xml version="1.0" encoding="UTF-8"?><!DOCTYPE svg PUBLIC "-//W3C//DTD SVG 1.1//EN" "http://www.w3.org/Graphics/SVG/1.1/DTD/svg11.dtd"><svg xmlns="http://www.w3.org/2000/svg" xmlns:xlink="http://www.w3.org/1999/xlink"><defs/><symbol id="program-work" viewBox="0 0 48 48"><ellipse cx="20" cy="33" rx="17" ry="12" fill="currentColor"/><circle cx="20" cy="12" r="10" fill="currentColor"/><path d="M33.8748 45.4893C39.4669 45.4893 44.0002 40.956 44.0002 35.364C44.0002 29.7719 39.4669 25.2386 33.8748 25.2386C28.2828 25.2386 23.7495 29.7719 23.7495 35.364C23.7495 40.956 28.2828 45.4893 33.8748 45.4893Z" stroke="currentColor" stroke-width="2.25" fill="#FFF"/><path d="M34.0269 35.6695H32.7769V36.1999L33.1583 36.5685L34.0269 35.6695ZM33.1583 36.5685L37.6791 40.9362L39.4161 39.1382L34.8954 34.7706L33.1583 36.5685ZM35.2769 35.6695V27.9128H32.7769V35.6695H35.2769Z" fill="currentColor"/></symbol><symbol id="program-people-disabilities" viewBox="0 0 48 48"><path d="M23.8835 2 32.3301 8.30435 42.3786 5.22222 38.7379 14.8889 45 23.1546 34.2233 22.8744 27.9612 31 25.0485 21.1932 15 17.971 23.7379 12.2271 23.8835 2ZM8.6443 25 14.698 29.48 22.0805 27.38 19.4228 34.24 24 40.26 16.1745 39.98 11.5973 46 9.38255 38.86 2 36.48 8.49665 32.42 8.6443 25V25Z" fill="currentColor"/></symbol><symbol id="program-identification" viewBox="0 0 48 48"><rect x="2" y="10" width="44" height="28" rx="1" fill="currentColor"/><path d="M42 26H27V29H42V26ZM42 19H27V22H42V19ZM6 15H23V33H6z" fill="#FFF"/><path d="M7 33.0001C7 32.8412 7 32.5235 7 32.3647C7 28.5519 10.314 25.5334 14.5 25.5334C18.686 25.5334 22 28.5519 22 32.3647C22 32.5235 22 32.8412 22 33.0001" fill="currentColor"/><path d="M14.4999 26.0667C17.0147 26.0667 19.0534 24.037 19.0534 21.5333C19.0534 19.0296 17.0147 17 14.4999 17C11.985 17 9.94629 19.0296 9.94629 21.5333C9.94629 24.037 11.985 26.0667 14.4999 26.0667Z" fill="currentColor"/></symbol><symbol id="program-housing" viewBox="0 0 42 44"><g id="Page-1" stroke="none" stroke-width="1" fill="none" fill-rule="evenodd"><g id="icon-housing-v2" transform="translate(-4 -2)" fill-rule="nonzero"><path id="Rectangle" d="M0 0H48V48H0z"/><path id="Shape" fill="currentColor" d="M27 46 4 46 4 31.1685 15.5 23 26.8544 31.0124 27 31.1685z"/><path id="Shape" fill="#FFF" d="M10 39 10 43 14 43 14 39zM10 32 10 36 14 36 14 32zM17 39 17 43 21 43 21 39zM17 32 17 36 21 36 21 32z"/><path id="Shape" fill="currentColor" d="M44 4 25 4 25 46 44 46z"/><path id="Shape" fill="#FFF" d="M40 39 36 39 36 43 40 43zM33 39 29 39 29 43 33 43zM40 31 36 31 36 35 40 35zM33 31 29 31 29 35 33 35zM40 23 36 23 36 27 40 27zM33 23 29 23 29 27 33 27zM40 15 36 15 36 19 40 19zM33 15 29 15 29 19 33 19zM40 7 36 7 36 11 40 11zM33 7 29 7 29 11 33 11z"/><path id="Rectangle-path" fill="currentColor" d="M23 2H46V4H23z"/></g></g></symbol><symbol id="program-health" viewBox="0 0 48 48"><path d="M42.2254 26.5514L24 45L5.7746 26.5514C0.741798 21.457 0.7418 13.1973 5.7746 8.10285C10.8074 3.00841 18.9672 4.63622 24 9.73065C29.0328 4.63622 37.1926 3.00841 42.2254 8.10285C47.2582 13.1973 47.2582 21.457 42.2254 26.5514Z" fill="currentColor"/><path fill="#FFF" d="M21 16H27V32H21z"/><path transform="rotate(90 32 21)" fill="#FFF" d="M32 21H38V37H32z"/></symbol><symbol id="program-food" viewBox="0 0 48 48"><path d="M24.9399 8.16528C23.5077 3.78992 19.0354 1.8064 14.8354 2.41819 15.2599 6.64979 18.0457 10.5455 22.3283 11.1565 24.8452 11.5155 25.7369 10.5999 24.9399 8.16528ZM31.7652 12.6899C28.2606 12.6899 25.5274 13.408 24.1069 15.5621 22.6865 13.408 19.9533 12.6899 16.4487 12.6899-4.30152 12.6899 5.64142 45.72 18.4254 45.72 21.2662 45.72 22.6865 44.3004 24.107 44.3004 25.5274 44.3004 26.9479 45.72 29.7885 45.72 41.8622 45.72 52.5154 12.6899 31.7652 12.6899Z" fill="currentColor"/></symbol><symbol id="program-family-services" viewBox="0 0 48 48"><ellipse cx="24" cy="32" rx="17" ry="13" fill="currentColor"/><circle cx="24" cy="12" r="9" fill="currentColor"/><path fill-rule="evenodd" clip-rule="evenodd" d="M15.9033 43.3264C15.3869 42.4809 15.0991 41.5405 15.0991 40.5496C15.0991 36.8629 19.0841 33.8741 23.9998 33.8741C28.9155 33.8741 32.9005 36.8629 32.9005 40.5496C32.9005 41.5404 32.6127 42.4808 32.0964 43.3262C29.6985 44.3926 26.9377 45 23.9997 45C21.0617 45 18.3011 44.3927 15.9033 43.3264Z" fill="#FFF"/><circle cx="24" cy="30" r="5" fill="#FFF"/></symbol><symbol id="program-enrichment" viewBox="0 0 48 48"><path d="M24.0001 34.2666C29.6702 34.2666 34.2667 29.6701 34.2667 23.9999C34.2667 18.3298 29.6702 13.7333 24.0001 13.7333C18.3299 13.7333 13.7334 18.3298 13.7334 23.9999C13.7334 29.6701 18.3299 34.2666 24.0001 34.2666Z" fill="currentColor"/><path stroke="currentColor" stroke-width="3" stroke-linecap="round" d="M24 3 24 10M45 24 38 24M24 38 24 45M10 24 3 24M39.127 8.821 34.319 13.629M13.2 34.748 8.391 39.556M39.179 39.127 34.371 34.318M13.252 13.2 8.443 8.391"/></symbol><symbol id="program-english-math" viewBox="0 0 48 48"><path d="M21.36 32.8301 26.14 39.8601 28.93 24.0801H44M39.57 35.94 34.14 30.3M34.14 36.07 39.57 30.3M5.87 11.1399V20.3799M12.32 20.8201 5.87 20.8501M12.32 11.1399H5.87M12.03 16H5.87M16.28 20.8399V11.1399L24.23 20.8499V11.1399" stroke="#53B3FC" stroke-width="2.74" stroke-linecap="round" stroke-linejoin="round"/></symbol><symbol id="program-education" viewBox="0 0 48 48"><path d="M37.7638 23.4844V29.6768C37.7638 30.4331 37.3372 31.1248 36.6613 31.4641L24.8974 37.3711C24.3327 37.6546 23.6672 37.6546 23.1025 37.3711L11.3386 31.4641C10.6627 31.1248 10.2361 30.4331 10.2361 29.6768V23.4844L23.9999 30.3663 37.7638 23.4844ZM8 19H7V34H8V19ZM7.49223 34 9.73447 39.9793H5.25L7.49223 34V34Z" fill="currentColor"/><path d="M23.757 8.05631C23.9107 7.98123 24.0893 7.98123 24.2431 8.05631L44.3238 17.8607C44.7543 18.0709 44.7528 18.6993 44.3213 18.9074L24.2407 28.5907C24.0883 28.6642 23.9118 28.6642 23.7594 28.5907L3.67873 18.9074C3.24723 18.6993 3.24576 18.0709 3.67628 17.8607L23.757 8.05631Z" fill="currentColor"/><path d="M24.0001 20.0434C24.792 20.0434 25.4339 19.4015 25.4339 18.6096C25.4339 17.8178 24.792 17.1759 24.0001 17.1759C23.2083 17.1759 22.5664 17.8178 22.5664 18.6096C22.5664 19.4015 23.2083 20.0434 24.0001 20.0434Z" fill="#FFF"/><circle cx="7.5" cy="34.5" r="1.5" fill="currentColor"/></symbol><symbol id="program-child-care" viewBox="0 0 48 50"><path d="M18.3076 23.5215 8.94318 28.1483M30.4553 23.5215 39.9716 28.2418" stroke="currentColor" stroke-width="7.5" stroke-linecap="round"/><path d="M31.3232 37.4048 39.9717 42.0316M17.4399 37.4048 9.08359 42.2928" stroke="currentColor" stroke-width="10" stroke-linecap="round"/><path d="M28.0884 41.743H20.6743C15.9977 41.743 12.2336 37.5839 12.2336 32.4165V28.5095C12.2336 23.3421 15.9977 19.183 20.6743 19.183H28.0884C32.765 19.183 36.5291 23.3421 36.5291 28.5095V32.4165C36.5291 37.5839 32.6509 41.743 28.0884 41.743V41.743Z" fill="currentColor"/><path d="M25.2495 40.0076H23.5141C20.1737 40.0076 15.7048 36.4883 15.7048 32.1159V28.81C15.7048 24.4376 18.3935 20.9183 21.7339 20.9183H27.0297C30.3701 20.9183 33.0587 24.4376 33.0587 28.81V32.1159C33.0587 36.4883 28.5084 40.0076 25.2495 40.0076Z" fill="#FFF"/><path d="M13.1017 10.506C15.4977 10.506 17.4401 8.56364 17.4401 6.16757 17.4401 3.7715 15.4977 1.8291 13.1017 1.8291 10.7056 1.8291 8.76318 3.7715 8.76318 6.16757 8.76318 8.56364 10.7056 10.506 13.1017 10.506ZM35.6617 10.506C38.0578 10.506 40.0002 8.56364 40.0002 6.16757 40.0002 3.7715 38.0578 1.8291 35.6617 1.8291 33.2656 1.8291 31.3232 3.7715 31.3232 6.16757 31.3232 8.56364 33.2656 10.506 35.6617 10.506Z" fill="currentColor"/><path d="M24.3814 22.6538C19.7048 22.6538 12.2336 18.0761 12.2336 13.5136V10.0639C12.2336 5.50136 15.9977 1.8291 20.6743 1.8291H28.0884C32.765 1.8291 36.5291 5.50136 36.5291 10.0639V13.5136C36.5291 18.0761 28.9439 22.6538 24.3814 22.6538Z" fill="currentColor"/><circle cx="19.5" cy="8.5" r="1.5" fill="#FFF"/><circle cx="29.5" cy="8.5" r="1.5" fill="#FFF"/><ellipse cx="24.5" cy="16.5" rx="5.5" ry="4.5" fill="#FFF"/><circle cx="24.5" cy="15.5" r="1.5" fill="currentColor"/></symbol><symbol id="program-certification" viewBox="0 0 48 48"><path d="M7.16 12H40.25C41.49 12 42.5 13.01 42.5 14.25V30.74C42.5 31.98 41.49 32.99 40.25 32.99H7.75C6.51 32.99 5.5 31.98 5.5 30.74V13.66C5.5 12.74 6.24 12 7.16 12V12Z" fill="#53B3FC"/><path d="M38.75 23.3572C38.75 19.6272 35.73 16.6072 32 16.6072C28.27 16.6072 25.25 19.6272 25.25 23.3572C25.25 25.6972 26.44 27.7572 28.25 28.9672V36.9772C28.25 37.2372 28.47 37.4172 28.68 37.3272L31.89 35.8072C31.96 35.7772 32.05 35.7772 32.12 35.8072L35.33 37.3272C35.53 37.4272 35.76 37.2472 35.76 36.9772V28.9672C37.57 27.7572 38.76 25.6972 38.76 23.3572H38.75Z" fill="#004CBE"/><path d="M10 18.5H21.32M10 22.4299H21.5M10 26.3501H21.32" stroke="#fff" stroke-width="2" stroke-miterlimit="10"/></symbol><symbol id="program-cash-expenses" viewBox="0 0 48 48"><rect x="2" y="10" width="44" height="28" rx="1" fill="currentColor"/><circle cx="24" cy="24" r="11" fill="#FFF"/><path d="M20 27.9189C20 27.9189 21.5909 29 23.8182 29 25.0909 29 27 28.4595 27 26.8378 27 25.4865 25.9081 24.8876 23.5 23.8649 23.3139 23.7858 22.8636 23.5946 22.2273 23.3243 20.9545 22.7838 20.6364 21.973 20.6364 21.1622 20.6364 20.187 21.5909 19 23.8182 19 25.3455 19 26.5758 19.7207 27 20.0811M24 19 24 16M24 32 24 29" stroke="currentColor" stroke-width="3" fill="transparent"/></symbol><symbol id="program-career-services" viewBox="0 0 48 48"><path d="M33.25 8.00024C32.17 8.00024 31.14 8.20025 30.18 8.55025C29 5.59025 26.12 3.50024 22.75 3.50024C18.45 3.50024 14.95 6.90025 14.77 11.1502C14.28 11.0502 13.77 11.0002 13.25 11.0002C9.10997 11.0002 5.74997 14.3602 5.74997 18.5002C5.74997 22.6402 9.10997 26.0002 13.25 26.0002H33.25C38.22 26.0002 42.25 21.9702 42.25 17.0002C42.25 12.0302 38.22 8.00024 33.25 8.00024Z" fill="#53B3FC"/><path d="M18.5 43.0001V19.3601M29.5 43.0001V19.3601M18.5 24.1704H29.5M18.5 30.9998H29.5M18.5 38.0002H29.5" stroke="#004CBE" stroke-width="4" stroke-miterlimit="10" stroke-linecap="round"/></symbol><symbol id="program-card-work" viewBox="0 0 48 48"><path d="M24 48C37.2548 48 48 37.2548 48 24C48 10.7452 37.2548 0 24 0C10.7452 0 0 10.7452 0 24C0 37.2548 10.7452 48 24 48Z"/><path d="M24 44C35.0457 44 44 35.0457 44 24C44 12.9543 35.0457 4 24 4C12.9543 4 4 12.9543 4 24C4 35.0457 12.9543 44 24 44Z" fill="currentColor"/><ellipse cx="21.5" cy="29" rx="10.5" ry="8" fill="#fff"/><circle cx="21.5" cy="15.5" r="6.5" fill="#fff"/><path d="M30.5 37.75C34.5041 37.75 37.75 34.5041 37.75 30.5C37.75 26.4959 34.5041 23.25 30.5 23.25C26.4959 23.25 23.25 26.4959 23.25 30.5C23.25 34.5041 26.4959 37.75 30.5 37.75Z" fill="currentColor" stroke="#fff" stroke-width="1.5"/><path d="M30.5178 30.7789H29.7678V31.1099L30.0123 31.3329L30.5178 30.7789ZM30.0123 31.3329L32.9945 34.054L34.0055 32.946L31.0233 30.2249L30.0123 31.3329ZM31.2678 30.7789V25.5H29.7678V30.7789H31.2678Z" fill="#fff"/></symbol><symbol id="program-card-people-with-disabilities" viewBox="0 0 48 48"><path d="M24 48C37.2548 48 48 37.2548 48 24C48 10.7452 37.2548 0 24 0C10.7452 0 0 10.7452 0 24C0 37.2548 10.7452 48 24 48Z"/><path d="M24 44C35.0457 44 44 35.0457 44 24C44 12.9543 35.0457 4 24 4C12.9543 4 4 12.9543 4 24C4 35.0457 12.9543 44 24 44Z" fill="currentColor"/><path d="M24.1209 10 29.3766 14.0777 35.6291 12.0842 33.3637 18.3367 37.2602 23.6831 30.5546 23.5018 26.6581 28.7576 24.8458 22.4145 18.5933 20.3303 24.0302 16.615 24.1209 10V10ZM14.4305 24.4075 18.1458 27.3072 22.6766 25.948 21.0455 30.3882 23.8546 34.2847 19.052 34.1034 16.2429 37.9999 14.8836 33.3785 10.3528 31.838 14.3399 29.2101 14.4305 24.4075V24.4075Z" fill="#fff"/></symbol><symbol id="program-card-identification" viewBox="0 0 48 48"><path d="M24 48C37.2548 48 48 37.2548 48 24C48 10.7452 37.2548 0 24 0C10.7452 0 0 10.7452 0 24C0 37.2548 10.7452 48 24 48Z" fill="#217CEB"/><path d="M24 44.0003C35.0457 44.0003 44 35.0459 44 24.0002C44 12.9545 35.0457 4.00024 24 4.00024C12.9543 4.00024 4.00003 12.9545 4.00003 24.0002C4.00003 35.0459 12.9543 44.0003 24 44.0003Z" fill="#00369F"/><rect x="10" y="15" width="28" height="18" rx="1.051" fill="#fff"/><path d="M35.0002 25H27.0002V27H35.0002V25ZM35.0003 20.9998H27.0003V22.9998H35.0003V20.9998ZM13 18H25V30H13z" fill="#00369F"/><path d="M14 30C14 29.8922 14 29.6765 14 29.5686C14 26.9803 16.2093 24.9312 19 24.9312C21.7907 24.9312 24 26.9803 24 29.5686C24 29.6765 24 29.8922 24 30" fill="#fff"/><path d="M19 25.5C20.6569 25.5 22 24.1569 22 22.5C22 20.8431 20.6569 19.5 19 19.5C17.3432 19.5 16 20.8431 16 22.5C16 24.1569 17.3432 25.5 19 25.5Z" fill="#fff"/></symbol><symbol id="program-card-housing" viewBox="0 0 48 48"><path d="M24 48C37.2548 48 48 37.2548 48 24C48 10.7452 37.2548 0 24 0C10.7452 0 0 10.7452 0 24C0 37.2548 10.7452 48 24 48Z"/><path d="M24 44C35.0457 44 44 35.0457 44 24C44 12.9543 35.0457 4 24 4C12.9543 4 4 12.9543 4 24C4 35.0457 12.9543 44 24 44Z" fill="currentColor"/><path d="M33 13H23V35H33V13Z" fill="#fff"/><path d="M27 27H25V29H27V27ZM27 31H25V33H27V31ZM31 27H29V29H31V27ZM31 31H29V33H31V31ZM27 23H25V25H27V23ZM31 23H29V25H31V23ZM27 19H25V21H27V19ZM31 19H29V21H31V19ZM27 15H25V17H27V15ZM31 15H29V17H31V15Z" fill="currentColor"/><path d="M24 35H12V26.9394L18 22.5L23.9241 26.8545L24 26.9394V35Z" fill="#fff"/><path d="M19 27 19 29 21 29 21 27 19 27ZM19 31 19 33 21 33 21 31 19 31ZM15 27 15 29 17 29 17 27 15 27ZM15 31 15 33 17 33 17 31 15 31Z" fill="currentColor"/><path fill="#fff" d="M22 12H34V13H22z"/></symbol><symbol id="program-card-health" viewBox="0 0 48 48"><path d="M24 48C37.2548 48 48 37.2548 48 24C48 10.7452 37.2548 0 24 0C10.7452 0 0 10.7452 0 24C0 37.2548 10.7452 48 24 48Z"/><path d="M24 44C35.0457 44 44 35.0457 44 24C44 12.9543 35.0457 4 24 4C12.9543 4 4 12.9543 4 24C4 35.0457 12.9543 44 24 44Z" fill="currentColor"/><path d="M35.3334 26.6668L24 38.0001L12.6666 26.6668C9.53701 23.5371 9.53701 18.463 12.6666 15.3334C15.7963 12.2038 20.8704 13.2038 24 16.3334C27.1296 13.2038 32.2037 12.2038 35.3334 15.3334C38.463 18.463 38.463 23.5371 35.3334 26.6668Z" fill="#fff"/><path fill="currentColor" d="M22 20H26V30H22z"/><path transform="rotate(90 29 23)" fill="currentColor" d="M29 23H33V33H29z"/></symbol><symbol id="program-card-food" viewBox="0 0 48 48"><path d="M24 48C37.2548 48 48 37.2548 48 24C48 10.7452 37.2548 0 24 0C10.7452 0 0 10.7452 0 24C0 37.2548 10.7452 48 24 48Z"/><path d="M24 44C35.0457 44 44 35.0457 44 24C44 12.9543 35.0457 4 24 4C12.9543 4 4 12.9543 4 24C4 35.0457 12.9543 44 24 44Z" fill="currentColor"/><path d="M24.626 12.9863C23.6721 10.072 20.6933 8.75087 17.8958 9.15836 18.1786 11.9769 20.0341 14.5716 22.8866 14.9786 24.563 15.2177 25.1569 14.6079 24.626 12.9863ZM29.1721 16C26.8378 16 25.0174 16.4783 24.0713 17.913 23.1252 16.4783 21.3047 16 18.9704 16 5.14953 16 11.7721 38 20.287 38 22.1792 38 23.1252 37.0544 24.0713 37.0544 25.0174 37.0544 25.9635 38 27.8556 38 35.8973 38 42.993 16 29.1721 16Z" fill="#fff"/></symbol><symbol id="program-card-family-services" viewBox="0 0 48 48"><path d="M24 48C37.2548 48 48 37.2548 48 24C48 10.7452 37.2548 0 24 0C10.7452 0 0 10.7452 0 24C0 37.2548 10.7452 48 24 48Z"/><path d="M24 44C35.0457 44 44 35.0457 44 24C44 12.9543 35.0457 4 24 4C12.9543 4 4 12.9543 4 24C4 35.0457 12.9543 44 24 44Z" fill="currentColor"/><ellipse cx="24" cy="29.5" rx="11" ry="8.5" fill="#fff"/><circle cx="24" cy="16" r="6" fill="#fff"/><ellipse cx="24" cy="35.5" rx="6" ry="4.5" fill="currentColor"/><circle cx="24" cy="28" r="4" fill="currentColor"/></symbol><symbol id="program-card-enrichment" viewBox="0 0 48 48"><path d="M24 48C37.2548 48 48 37.2548 48 24C48 10.7452 37.2548 0 24 0C10.7452 0 0 10.7452 0 24C0 37.2548 10.7452 48 24 48Z"/><path d="M24 44C35.0457 44 44 35.0457 44 24C44 12.9543 35.0457 4 24 4C12.9543 4 4 12.9543 4 24C4 35.0457 12.9543 44 24 44Z" fill="currentColor"/><path d="M24 31C27.866 31 31 27.866 31 24C31 20.134 27.866 17 24 17C20.134 17 17 20.134 17 24C17 27.866 20.134 31 24 31Z" fill="#fff"/><path stroke="#fff" stroke-width="2" stroke-linecap="round" d="M24 10 24 14M38 24 34 24M24 34 24 38M14 24 10 24M34.314 14.101 31.485 16.929M16.636 31.778 13.808 34.607M33.9 34.314 31.071 31.485M16.222 16.636 13.393 13.808"/></symbol><symbol id="program-card-english-math" viewBox="0 0 48 48"><path d="M24 48C37.2548 48 48 37.2548 48 24C48 10.7452 37.2548 0 24 0C10.7452 0 0 10.7452 0 24C0 37.2548 10.7452 48 24 48Z"/><path d="M24 43.9998C35.0457 43.9998 44 35.0455 44 23.9998C44 12.9541 35.0457 3.99976 24 3.99976C12.9543 3.99976 3.99997 12.9541 3.99997 23.9998C3.99997 35.0455 12.9543 43.9998 24 43.9998Z" fill="currentColor"/><path fill-rule="evenodd" clip-rule="evenodd" d="M19.3839 14.3663C19.1163 14.0392 18.6718 13.9157 18.2738 14.0578C17.8757 14.1999 17.61 14.5769 17.61 14.9996V22.0896C17.61 22.6419 18.0577 23.0896 18.61 23.0896C19.1623 23.0896 19.61 22.6419 19.61 22.0896V17.8006L23.6461 22.7329C23.9138 23.06 24.3582 23.1835 24.7562 23.0413C25.1543 22.8992 25.42 22.5222 25.42 22.0996V14.9996C25.42 14.4473 24.9723 13.9996 24.42 13.9996C23.8677 13.9996 23.42 14.4473 23.42 14.9996V19.2985L19.3839 14.3663ZM11 13.9996H15.71C16.2623 13.9996 16.71 14.4473 16.71 14.9996C16.71 15.5519 16.2623 15.9996 15.71 15.9996H12V17.5495H15.5C16.0523 17.5495 16.5 17.9972 16.5 18.5495C16.5 19.1017 16.0523 19.5495 15.5 19.5495H12V21.0953L15.7058 21.0796C16.2581 21.0773 16.7077 21.5231 16.71 22.0753C16.7124 22.6276 16.2666 23.0772 15.7143 23.0796L11.0043 23.0996C10.452 23.1019 10.0024 22.6561 10 22.1038C9.99979 22.0444 10.0047 21.9862 10.0144 21.9296C10.005 21.8743 10 21.8175 10 21.7596V18.5495V14.9996C10 14.4473 10.4477 13.9996 11 13.9996ZM27.86 23.4597C27.3752 23.4597 26.9602 23.8075 26.8754 24.2848L25.2556 33.403L23.1473 30.298C22.8371 29.8411 22.2152 29.7221 21.7583 30.0324C21.3014 30.3426 21.1825 30.9645 21.4927 31.4214L24.9827 36.5614C25.2112 36.898 25.6209 37.0626 26.0188 36.9777C26.4167 36.8927 26.7234 36.5752 26.7946 36.1746L28.698 25.4597H38.87C39.4223 25.4597 39.87 25.012 39.87 24.4597C39.87 23.9074 39.4223 23.4597 38.87 23.4597H27.86ZM32.3901 28.3156C32.0069 27.918 31.3738 27.9062 30.9761 28.2894C30.5784 28.6726 30.5667 29.3057 30.9499 29.7034L32.2949 31.0992L30.9425 32.5335C30.5636 32.9353 30.5821 33.5682 30.984 33.9471C31.3858 34.326 32.0187 34.3074 32.3976 33.9056L33.6843 32.5411L34.9199 33.8234C35.3031 34.2211 35.9362 34.2328 36.3339 33.8496C36.7316 33.4664 36.7433 32.8333 36.3601 32.4357L35.058 31.0843L36.3676 29.6956C36.7465 29.2938 36.7279 28.6609 36.3261 28.282C35.9243 27.9031 35.2914 27.9217 34.9125 28.3235L33.6686 29.6425L32.3901 28.3156Z" fill="#fff"/></symbol><symbol id="program-card-education" viewBox="0 0 48 48"><path d="M24 48C37.2548 48 48 37.2548 48 24C48 10.7452 37.2548 0 24 0C10.7452 0 0 10.7452 0 24C0 37.2548 10.7452 48 24 48Z"/><path d="M24 44C35.0457 44 44 35.0457 44 24C44 12.9543 35.0457 4 24 4C12.9543 4 4 12.9543 4 24C4 35.0457 12.9543 44 24 44Z" fill="currentColor"/><path d="M31 21C32.1046 21 33 21.8954 33 23V27.0263C33 27.7668 32.5909 28.4467 31.9366 28.7934L24.9366 32.5036C24.3508 32.8141 23.6492 32.8141 23.0634 32.5036L16.0634 28.7934C15.4091 28.4467 15 27.7668 15 27.0263V23C15 21.8954 15.8954 21 17 21H31ZM14 21H13V31H14V21Z" fill="#fff"/><path d="M13.5 30L15 34H12L13.5 30V30Z" fill="#fff"/><path d="M37.7914 19.0173L24.4303 12.6511C24.1581 12.5214 23.8421 12.5214 23.57 12.6511L10.2089 19.0173C9.44703 19.3803 9.44964 20.4655 10.2132 20.8248L23.5743 27.1124C23.844 27.2393 24.1562 27.2393 24.4259 27.1124L37.787 20.8248C38.5506 20.4655 38.5532 19.3803 37.7914 19.0173Z" fill="#fff" stroke="currentColor"/><path d="M24 21C24.5523 21 25 20.5523 25 20C25 19.4477 24.5523 19 24 19C23.4477 19 23 19.4477 23 20C23 20.5523 23.4477 21 24 21Z" fill="currentColor"/><circle cx="13.5" cy="31" r="1" fill="#fff"/></symbol><symbol id="program-card-child-care" viewBox="0 0 48 48"><path d="M24 48C37.2548 48 48 37.2548 48 24C48 10.7452 37.2548 0 24 0C10.7452 0 0 10.7452 0 24C0 37.2548 10.7452 48 24 48Z"/><path d="M24 44C35.0457 44 44 35.0457 44 24C44 12.9543 35.0457 4 24 4C12.9543 4 4 12.9543 4 24C4 35.0457 12.9543 44 24 44Z" fill="currentColor"/><path d="M20.3516 23.03 14.7266 25.8092M27.6484 23.03 33.3646 25.8654" stroke="#fff" stroke-width="4.5" stroke-linecap="round"/><path d="M28.1697 31.3694 33.3646 34.1486M19.8303 31.3694 14.8109 34.3055" stroke="#fff" stroke-width="6" stroke-linecap="round"/><path d="M26.2267 33.9754H21.7732C18.9641 33.9754 16.7031 31.4771 16.7031 28.3731V26.0263C16.7031 22.9224 18.9641 20.4241 21.7732 20.4241H26.2267C29.0358 20.4241 31.2968 22.9224 31.2968 26.0263V28.3731C31.2968 31.4771 28.9673 33.9754 26.2267 33.9754V33.9754Z" fill="#fff"/><path d="M24.5213 32.9329H23.4789C21.4724 32.9329 18.7881 30.819 18.7881 28.1926V26.2068C18.7881 23.5804 20.4031 21.4664 22.4096 21.4664H25.5906C27.5972 21.4664 29.2121 23.5804 29.2121 26.2068V28.1926C29.2121 30.819 26.4789 32.9329 24.5213 32.9329Z" fill="currentColor"/><path d="M17.2244 15.212C18.6637 15.212 19.8304 14.0453 19.8304 12.606 19.8304 11.1668 18.6637 10 17.2244 10 15.7852 10 14.6184 11.1668 14.6184 12.606 14.6184 14.0453 15.7852 15.212 17.2244 15.212ZM30.7757 15.212C32.215 15.212 33.3817 14.0453 33.3817 12.606 33.3817 11.1668 32.215 10 30.7757 10 29.3364 10 28.1697 11.1668 28.1697 12.606 28.1697 14.0453 29.3364 15.212 30.7757 15.212Z" fill="#fff"/><path d="M24 22.5089C21.1909 22.5089 16.7031 19.7592 16.7031 17.0186V14.9464C16.7031 12.2058 18.9641 10 21.7732 10H26.2267C29.0358 10 31.2968 12.2058 31.2968 14.9464V17.0186C31.2968 19.7592 26.7406 22.5089 24 22.5089Z" fill="#fff"/><circle cx="21" cy="14" r="1" fill="currentColor"/><circle cx="27" cy="14" r="1" fill="currentColor"/><ellipse cx="24" cy="18.5" rx="3" ry="2.5" fill="currentColor"/><circle cx="24" cy="18" r="1" fill="#fff"/></symbol><symbol id="program-card-certification" viewBox="0 0 48 48"><path d="M24 48C37.2548 48 48 37.2548 48 24C48 10.7452 37.2548 0 24 0C10.7452 0 0 10.7452 0 24C0 37.2548 10.7452 48 24 48Z"/><path d="M24 44C35.0457 44 44 35.0457 44 24C44 12.9543 35.0457 4 24 4C12.9543 4 4 12.9543 4 24C4 35.0457 12.9543 44 24 44Z" fill="currentColor"/><path d="M12.16 16.3098H35.24C36.48 16.3098 37.49 17.3198 37.49 18.5598V29.3798C37.49 30.6198 36.48 31.6298 35.24 31.6298H12.75C11.51 31.6298 10.5 30.6198 10.5 29.3798V17.9698C10.5 17.0498 11.24 16.3098 12.16 16.3098Z" fill="#fff"/><path d="M34.76 24.8272C34.76 22.1072 32.55 19.8972 29.83 19.8972C27.11 19.8972 24.9 22.1072 24.9 24.8272C24.9 26.5372 25.77 28.0372 27.09 28.9172V34.7572C27.09 34.9472 27.25 35.0772 27.4 35.0072L29.74 33.8972C29.79 33.8672 29.85 33.8672 29.91 33.8972L32.25 35.0072C32.4 35.0772 32.56 34.9472 32.56 34.7572V28.9172C33.88 28.0372 34.75 26.5272 34.75 24.8272H34.76Z"/><path d="M22.17 21.7803H13.78V20.3203H22.17V21.7803ZM22.17 24.6504H13.78V23.1904H22.17V24.6504ZM13.78 27.5105H22.17V26.0505H13.78V27.5105Z" fill="currentColor"/></symbol><symbol id="program-card-cash-expenses" viewBox="0 0 48 48"><path d="M24 48C37.2548 48 48 37.2548 48 24C48 10.7452 37.2548 0 24 0C10.7452 0 0 10.7452 0 24C0 37.2548 10.7452 48 24 48Z"/><path d="M24 44C35.0457 44 44 35.0457 44 24C44 12.9543 35.0457 4 24 4C12.9543 4 4 12.9543 4 24C4 35.0457 12.9543 44 24 44Z" fill="currentColor"/><path d="M23.5 32C27.6421 32 31 28.6421 31 24.5C31 20.3579 27.6421 17 23.5 17C19.3579 17 16 20.3579 16 24.5C16 28.6421 19.3579 32 23.5 32Z" fill="currentColor"/><rect x="10" y="15" width="28" height="18" rx="1" fill="#fff"/><circle cx="24" cy="24" r="8" fill="currentColor"/><path d="M21 27.1351C21 27.1351 22.3636 28 24.2727 28C25.3636 28 27 27.5676 27 26.2703C27 25.1892 26.0641 24.7101 24 23.8919C23.8405 23.8287 23.4545 23.6757 22.9091 23.4595C21.8182 23.027 21.5455 22.3784 21.5455 21.7297C21.5455 20.9496 22.3636 20 24.2727 20C25.5818 20 26.6364 20.5766 27 20.8649" stroke="#fff" stroke-width="1.5" fill="transparent"/><path d="M24 20 24 18M24 30 24 28" stroke="#fff" stroke-width="1.5"/></symbol><symbol id="program-card-career-services" viewBox="0 0 48 48"><path d="M24 48C37.2548 48 48 37.2548 48 24C48 10.7452 37.2548 0 24 0C10.7452 0 0 10.7452 0 24C0 37.2548 10.7452 48 24 48Z"/><path d="M24 44C35.0457 44 44 35.0457 44 24C44 12.9543 35.0457 4 24 4C12.9543 4 4 12.9543 4 24C4 35.0457 12.9543 44 24 44Z" fill="currentColor"/><path d="M30.68 12.2503C29.9 12.2503 29.16 12.3903 28.47 12.6503C27.62 10.5203 25.54 9.01025 23.11 9.01025C20.01 9.01025 17.48 11.4603 17.35 14.5303C17 14.4603 16.63 14.4203 16.26 14.4203C13.27 14.4203 10.85 16.8403 10.85 19.8303C10.85 22.8203 13.27 25.2403 16.26 25.2403H30.69C34.28 25.2403 37.18 22.3303 37.18 18.7503C37.18 15.1703 34.27 12.2603 30.69 12.2603L30.68 12.2503Z" fill="#fff"/><path clip-rule="evenodd" d="M20.03 18.9956C20.8281 18.9956 21.475 19.6426 21.475 20.4406V22.4656H26.525V20.4406C26.525 19.6426 27.172 18.9956 27.97 18.9956C28.7681 18.9956 29.415 19.6426 29.415 20.4406L29.415 23.9106V28.8403V33.8903L29.415 37.5006C29.415 38.2987 28.7681 38.9456 27.97 38.9456C27.172 38.9456 26.525 38.2987 26.525 37.5006V35.3353H21.475V37.5006C21.475 38.2987 20.8281 38.9456 20.03 38.9456C19.232 38.9456 18.585 38.2987 18.585 37.5006V20.4406C18.585 19.6426 19.232 18.9956 20.03 18.9956ZM21.475 32.4453H26.525V30.2853H21.475V32.4453ZM26.525 25.3556V27.3953H21.475V25.3556H26.525Z"/><path fill-rule="evenodd" clip-rule="evenodd" d="M21.475 32.4452H26.525V30.2852H21.475V32.4452ZM26.525 25.3555V27.3952H21.475V25.3555H26.525Z" fill="currentColor"/></symbol><symbol id="nyco-languages" viewBox="0 0 24 24"><path d="M3 16C4.5 15.1667 8 12.5 10 9.5C12 6.5 11.5 4 11.5 4M14.5 4H8.5M2.5 4H8.5M8.5 4V2.5M4.5 7C5.5 10 7.5 12.5 10 14.5M12 21L13.35 18M21 21L19.65 18M13.35 18L16.5 10.5C17.7302 13.2337 18.4198 15.2663 19.65 18M13.35 18H19.65"/></symbol><symbol id="nyco-accessibility" viewBox="0 0 24 24"><path d="M20.0888 10.975C19.8251 10.7044 19.4566 10.5616 19.0801 10.5822L14.5227 10.8359 17.0307 7.97945C17.388 7.57256 17.4901 7.03016 17.352 6.54548 17.2791 6.21336 17.0779 5.91117 16.7689 5.7181 16.7595 5.71133 10.7739 2.23419 10.7739 2.23419 10.2852 1.95027 9.66928 2.01282 9.24749 2.38903L6.32364 4.99716C5.78494 5.47765 5.73777 6.30387 6.21829 6.8426 6.69886 7.38126 7.52511 7.42858 8.06377 6.94791L10.2805 4.97059 12.113 6.03475 8.8783 9.71873C7.53699 9.93748 6.33014 10.5556 5.38275 11.4467L7.07193 13.1359C7.83553 12.4416 8.84942 12.0178 9.96041 12.0178 12.3301 12.0178 14.2581 13.9458 14.2581 16.3155 14.2581 17.4265 13.8343 18.4403 13.14 19.2039L14.8291 20.8931C15.9543 19.6969 16.6449 18.0874 16.6449 16.3155 16.6449 15.2599 16.3998 14.2616 15.964 13.3738L17.7281 13.2756 17.299 18.5394C17.2403 19.2589 17.7761 19.8896 18.4956 19.9483 18.5316 19.9513 18.5676 19.9527 18.6032 19.9527 19.2769 19.9527 19.8489 19.435 19.9045 18.7517L20.4553 11.9935C20.4861 11.6169 20.3524 11.2455 20.0888 10.975ZM17.668 5.37585C18.8763 5.37585 19.8557 4.39632 19.8557 3.18794 19.8557 1.97963 18.8763 1 17.668 1 16.4596 1 15.4801 1.97963 15.4801 3.18794 15.4801 4.39632 16.4595 5.37585 17.668 5.37585ZM9.96055 20.6132C7.59079 20.6132 5.66283 18.6852 5.66283 16.3155 5.66283 15.4224 5.93685 14.5923 6.40493 13.9043L4.69752 12.1969C3.80786 13.3322 3.276 14.7614 3.276 16.3155 3.276 20.0073 6.26874 23 9.96055 23 11.5147 23 12.9438 22.4681 14.079 21.5785L12.3717 19.8711C11.6837 20.3391 10.8536 20.6132 9.96055 20.6132Z" fill="currentColor"/></symbol><symbol id="logo-nyc" viewBox="0 0 456 152"><path d="M446.505 66.3803 456 57.0104V28.5052L427.495 0H332.505L304 28.5052V9.51562L294.505 0H256.505L247.01 9.51562V28.5052L228 47.5156 209.01 28.5052V9.51562L199.495 0H161.495L152 9.51562 142.505 0H104.505L95.0104 9.51562V47.5156L47.4948 0H9.49479L0 9.51562V142.505L9.49479 152H47.4948L57.0104 142.505V104.505L104.505 152H142.505L152 142.505V66.5052L199.495 114V142.505L209.01 152H247.01L256.505 142.505V114L304 66.5052V123.516L332.505 152H427.495L456 123.516V95.0104L446.505 85.4948H398.99V95.0104H361.01V57.0104H398.99V66.3803H446.505ZM449.233 6.41315C450.128 6.41315 450.899 6.32986 450.899 5.28876 450.899 4.41424 450.045 4.31013 449.337 4.31013H447.9V6.41315H449.233ZM447.921 10.4942H446.734V3.31068H449.462C451.19 3.31068 452.085 3.91452 452.085 5.37205 452.085 6.68383 451.294 7.20438 450.211 7.32931L452.231 10.4942H450.899L449.045 7.4126H447.942V10.4942H447.921ZM449.191 1.41589C446.38 1.41589 444.194 3.62301 444.194 6.78794 444.194 9.74466 446.11 12.16 449.191 12.16 451.981 12.16 454.168 9.9737 454.168 6.78794 454.168 3.62301 451.981 1.41589 449.191 1.41589ZM449.191 13.2844C445.464 13.2844 442.799 10.4942 442.799 6.78794 442.799 2.87342 445.756.291504 449.191.291504 452.585.291504 455.542 2.87342 455.542 6.78794 455.563 10.6816 452.606 13.2844 449.191 13.2844Z" fill="currentColor"/></symbol><symbol id="logo-google-translate" viewBox="0 0 175 16"><path fill-rule="evenodd" clip-rule="evenodd" d="M128.789 4.79395C128.051 4.79395 127.023 5.31595 126.733 6.12728H126.675V4.90261H125.4V11.9999H126.733V8.18395C126.733 6.87995 127.66 6.11261 128.572 6.11261 128.862 6.11261 129.094 6.14128 129.282 6.21395L129.789 4.96861C129.514 4.85261 129.224 4.79395 128.789 4.79395ZM152.801 1.4606H154.133V11.9999H152.801V1.4606ZM148.658 4.79395C147.225 4.79395 145.891 5.59461 145.891 6.84461 145.891 8.05328 147.1 8.60061 147.732 8.75528L149.164 9.09261C149.895 9.27528 150.146 9.65461 150.146 10.0059 150.146 10.5813 149.529 10.9579 148.728 10.9579 147.899 10.9579 147.184 10.5539 146.819 9.66461L145.667 10.1426C146.074 11.1433 147.057 12.1273 148.715 12.1273 150.33 12.1273 151.467 11.1859 151.467 9.96395 151.467 9.12061 150.892 8.27795 149.529 7.95461L148.125 7.63128C147.577 7.50528 147.213 7.26661 147.213 6.83061 147.213 6.26861 147.885 5.96328 148.616 5.96328 149.29 5.96328 149.963 6.23061 150.231 6.87661L151.354 6.41328C150.933 5.35928 149.852 4.79395 148.658 4.79395ZM158.579 10.9286C157.904 10.9286 157.071 10.5813 157.071 9.85128 157.071 9.21928 157.679 8.52861 159.042 8.52861 160.138 8.52861 160.667 8.93795 160.667 8.93795 160.667 10.0619 159.604 10.9286 158.579 10.9286ZM158.859 4.79395C157.131 4.79395 156.158 5.79995 155.919 6.43195L157.099 6.93795C157.338 6.29195 158.171 5.99195 158.887 5.99195 159.857 5.99195 160.667 6.59395 160.667 7.68528V7.88261C160.399 7.72795 159.745 7.46061 158.817 7.46061 157.202 7.46061 155.701 8.26395 155.701 9.82328 155.701 11.2559 156.963 12.1273 158.367 12.1273 159.548 12.1273 160.231 11.4913 160.611 10.9153H160.667V11.9999H161.922V7.74395C161.922 5.80528 160.545 4.79395 158.859 4.79395ZM133.323 10.9286C132.649 10.9286 131.815 10.5813 131.815 9.85128 131.815 9.21928 132.424 8.52861 133.787 8.52861 134.882 8.52861 135.411 8.93795 135.411 8.93795 135.411 10.0619 134.349 10.9286 133.323 10.9286ZM133.604 4.79395C131.876 4.79395 130.902 5.79995 130.663 6.43195L131.843 6.93795C132.083 6.29195 132.915 5.99195 133.632 5.99195 134.601 5.99195 135.411 6.59395 135.411 7.68528V7.88261C135.144 7.72795 134.489 7.46061 133.561 7.46061 131.946 7.46061 130.446 8.26395 130.446 9.82328 130.446 11.2559 131.707 12.1273 133.112 12.1273 134.292 12.1273 134.975 11.4913 135.355 10.9153H135.411V11.9999H136.667V7.74395C136.667 5.80528 135.29 4.79395 133.604 4.79395ZM169.398 7.62328C169.655 6.61995 170.425 5.99195 171.396 5.99195 172.894 5.99195 173.407 7.02728 173.45 7.62328H169.398ZM171.424 4.79395C169.37 4.79395 168 6.50728 168 8.46061 168 10.5399 169.427 12.1273 171.567 12.1273 173.179 12.1273 174.207 11.2279 174.62 10.2446L173.45 9.76728C173.079 10.6386 172.309 10.9286 171.538 10.9286 170.454 10.9286 169.384 10.1606 169.313 8.70728H174.834C174.834 8.70728 174.849 8.55861 174.849 8.46061 174.849 6.24061 173.507 4.79395 171.424 4.79395ZM141.778 4.79395C140.807 4.79395 139.909 5.35861 139.533 6.00995H139.475V4.90261H138.2V11.9999H139.533V8.19728C139.533 7.11128 140.243 6.00995 141.401 6.00995 142.415 6.00995 143.154 6.50261 143.154 7.97995V11.9999H144.487V7.77795C144.487 6.02528 143.589 4.79395 141.778 4.79395ZM165.399 2.79395H164.067V4.90261H162.821V6.12995H164.067V9.85328C164.067 11.3019 164.863 12.1273 166.355 12.1273 166.804 12.1273 167.123 12.0693 167.427 11.9393L166.964 10.7946C166.775 10.8813 166.601 10.9106 166.355 10.9106 165.733 10.9106 165.399 10.5486 165.399 9.75128V6.12995H167.137V4.90261H165.399V2.79395ZM124.95 1.4606H117.733V2.82727H120.667V11.9939H122.017V2.82727H124.95V1.4606ZM72.16 5.58594V7.22461H76.082C75.9647 8.14661 75.6574 8.81994 75.1894 9.28794 74.618 9.85861 73.7254 10.4879 72.16 10.4879 69.7447 10.4879 67.8574 8.54194 67.8574 6.12727 67.8574 3.71261 69.7447 1.76661 72.16 1.76661 73.462 1.76661 74.4134 2.27861 75.116 2.93727L76.272 1.78061C75.2914.844607 73.9894.127274 72.16.127274 68.8527.127274 66.072 2.81994 66.072 6.12727 66.072 9.43461 68.8527 12.1273 72.16 12.1273 73.9447 12.1273 75.2914 11.5419 76.3454 10.4446 77.428 9.36127 77.7647 7.83927 77.7647 6.60994 77.7647 6.22994 77.7354 5.87861 77.6767 5.58594H72.16ZM82.6666 4.25461C80.5253 4.25461 78.7793 5.88328 78.7793 8.12727 78.7793 10.3566 80.5253 11.9999 82.6666 11.9999 84.8086 11.9999 86.554 10.3566 86.554 8.12727 86.554 5.88328 84.8086 4.25461 82.6666 4.25461ZM82.6666 10.4739C81.4933 10.4739 80.4806 9.50594 80.4806 8.12727 80.4806 6.73394 81.4933 5.77994 82.6666 5.77994 83.84 5.77994 84.8526 6.73394 84.8526 8.12727 84.8526 9.50594 83.84 10.4739 82.6666 10.4739ZM101.72 5.12061H101.661C101.279 4.66528 100.546 4.25461 99.622 4.25461 97.686 4.25461 96 5.94127 96 8.12727 96 10.2979 97.686 11.9999 99.622 11.9999 100.546 11.9999 101.279 11.5893 101.661 11.1199H101.72V11.6613C101.72 13.1426 100.928 13.9346 99.6513 13.9346 98.61 13.9346 97.9647 13.1866 97.7007 12.5559L96.2193 13.1719C96.6447 14.1986 97.774 15.4606 99.6513 15.4606 101.647 15.4606 103.333 14.2873 103.333 11.4266V4.45394H101.72V5.12061ZM99.7693 10.4739C98.596 10.4739 97.702 9.47661 97.702 8.12727 97.702 6.76328 98.596 5.77994 99.7693 5.77994 100.929 5.77994 101.837 6.77794 101.837 8.14194 101.837 9.49127 100.929 10.4739 99.7693 10.4739ZM91.3334 4.25461C89.192 4.25461 87.446 5.88328 87.446 8.12727 87.446 10.3566 89.192 11.9999 91.3334 11.9999 93.4754 11.9999 95.2207 10.3566 95.2207 8.12727 95.2207 5.88328 93.4754 4.25461 91.3334 4.25461ZM91.3334 10.4739C90.16 10.4739 89.148 9.50594 89.148 8.12727 89.148 6.73394 90.16 5.77994 91.3334 5.77994 92.5067 5.77994 93.5194 6.73394 93.5194 8.12727 93.5194 9.50594 92.5067 10.4739 91.3334 10.4739ZM104.667.287277H106.34V11.9999H104.667V.287277ZM111.51 10.4739C110.645 10.4739 110.029 10.0786 109.632 9.30127L114.81 7.15928 114.634 6.71927C114.311 5.85394 113.329 4.25461 111.319 4.25461 109.324 4.25461 107.667 5.82461 107.667 8.12727 107.667 10.2986 109.309 11.9999 111.51 11.9999 113.285 11.9999 114.311 10.9146 114.737 10.2833L113.417 9.40328C112.977 10.0493 112.375 10.4739 111.51 10.4739ZM111.384 5.70594C112.073 5.70594 112.656 6.05661 112.851 6.55994L109.353 8.00994C109.353 6.37727 110.508 5.70594 111.384 5.70594Z" fill="currentColor"/><g fill="currentColor"><path d="M6.17578 8.90039C6.17578 9.86523 5.95508 10.6426 5.51367 11.2324 5.07227 11.8223 4.47461 12.1172 3.7207 12.1172 2.95117 12.1172 2.3457 11.873 1.9043 11.3848V14.4375H.820312V5.66016H1.81055L1.86328 6.36328C2.30469 5.81641 2.91797 5.54297 3.70312 5.54297 4.46484 5.54297 5.06641 5.83008 5.50781 6.4043 5.95312 6.97852 6.17578 7.77734 6.17578 8.80078V8.90039ZM5.0918 8.77734C5.0918 8.0625 4.93945 7.49805 4.63477 7.08398 4.33008 6.66992 3.91211 6.46289 3.38086 6.46289 2.72461 6.46289 2.23242 6.75391 1.9043 7.33594V10.3652C2.22852 10.9434 2.72461 11.2324 3.39258 11.2324 3.91211 11.2324 4.32422 11.0273 4.62891 10.6172 4.9375 10.2031 5.0918 9.58984 5.0918 8.77734ZM7.27148 8.77148C7.27148 8.15039 7.39258 7.5918 7.63477 7.0957 7.88086 6.59961 8.2207 6.2168 8.6543 5.94727 9.0918 5.67773 9.58984 5.54297 10.1484 5.54297 11.0117 5.54297 11.709 5.8418 12.2402 6.43945 12.7754 7.03711 13.043 7.83203 13.043 8.82422V8.90039C13.043 9.51758 12.9238 10.0723 12.6855 10.5645 12.4512 11.0527 12.1133 11.4336 11.6719 11.707 11.2344 11.9805 10.7305 12.1172 10.1602 12.1172 9.30078 12.1172 8.60352 11.8184 8.06836 11.2207 7.53711 10.623 7.27148 9.83203 7.27148 8.84766V8.77148ZM8.36133 8.90039C8.36133 9.60352 8.52344 10.168 8.84766 10.5938 9.17578 11.0195 9.61328 11.2324 10.1602 11.2324 10.7109 11.2324 11.1484 11.0176 11.4727 10.5879 11.7969 10.1543 11.959 9.54883 11.959 8.77148 11.959 8.07617 11.793 7.51367 11.4609 7.08398 11.1328 6.65039 10.6953 6.43359 10.1484 6.43359 9.61328 6.43359 9.18164 6.64648 8.85352 7.07227 8.52539 7.49805 8.36133 8.10742 8.36133 8.90039ZM20.0156 10.5059 21.2344 5.66016H22.3184L20.4727 12H19.5938L18.0527 7.19531 16.5527 12H15.6738L13.834 5.66016H14.9121L16.1602 10.4062 17.6367 5.66016H18.5098L20.0156 10.5059ZM26.0566 12.1172C25.1973 12.1172 24.498 11.8359 23.959 11.2734 23.4199 10.707 23.1504 9.95117 23.1504 9.00586V8.80664C23.1504 8.17773 23.2695 7.61719 23.5078 7.125 23.75 6.62891 24.0859 6.24219 24.5156 5.96484 24.9492 5.68359 25.418 5.54297 25.9219 5.54297 26.7461 5.54297 27.3867 5.81445 27.8438 6.35742 28.3008 6.90039 28.5293 7.67773 28.5293 8.68945V9.14062H24.2344C24.25 9.76562 24.4316 10.2715 24.7793 10.6582 25.1309 11.041 25.5762 11.2324 26.1152 11.2324 26.498 11.2324 26.8223 11.1543 27.0879 10.998 27.3535 10.8418 27.5859 10.6348 27.7852 10.377L28.4473 10.8926C27.916 11.709 27.1191 12.1172 26.0566 12.1172ZM25.9219 6.43359C25.4844 6.43359 25.1172 6.59375 24.8203 6.91406 24.5234 7.23047 24.3398 7.67578 24.2695 8.25H27.4453V8.16797C27.4141 7.61719 27.2656 7.19141 27 6.89062 26.7344 6.58594 26.375 6.43359 25.9219 6.43359ZM32.8535 6.63281C32.6895 6.60547 32.5117 6.5918 32.3203 6.5918 31.6094 6.5918 31.127 6.89453 30.873 7.5V12H29.7891V5.66016H30.8438L30.8613 6.39258C31.2168 5.82617 31.7207 5.54297 32.373 5.54297 32.584 5.54297 32.7441 5.57031 32.8535 5.625V6.63281ZM36.3691 12.1172C35.5098 12.1172 34.8105 11.8359 34.2715 11.2734 33.7324 10.707 33.4629 9.95117 33.4629 9.00586V8.80664C33.4629 8.17773 33.582 7.61719 33.8203 7.125 34.0625 6.62891 34.3984 6.24219 34.8281 5.96484 35.2617 5.68359 35.7305 5.54297 36.2344 5.54297 37.0586 5.54297 37.6992 5.81445 38.1562 6.35742 38.6133 6.90039 38.8418 7.67773 38.8418 8.68945V9.14062H34.5469C34.5625 9.76562 34.7441 10.2715 35.0918 10.6582 35.4434 11.041 35.8887 11.2324 36.4277 11.2324 36.8105 11.2324 37.1348 11.1543 37.4004 10.998 37.666 10.8418 37.8984 10.6348 38.0977 10.377L38.7598 10.8926C38.2285 11.709 37.4316 12.1172 36.3691 12.1172ZM36.2344 6.43359C35.7969 6.43359 35.4297 6.59375 35.1328 6.91406 34.8359 7.23047 34.6523 7.67578 34.582 8.25H37.7578V8.16797C37.7266 7.61719 37.5781 7.19141 37.3125 6.89062 37.0469 6.58594 36.6875 6.43359 36.2344 6.43359ZM39.8379 8.77734C39.8379 7.80469 40.0684 7.02344 40.5293 6.43359 40.9902 5.83984 41.5938 5.54297 42.3398 5.54297 43.082 5.54297 43.6699 5.79688 44.1035 6.30469V3H45.1875V12H44.1914L44.1387 11.3203C43.7051 11.8516 43.1016 12.1172 42.3281 12.1172 41.5938 12.1172 40.9941 11.8164 40.5293 11.2148 40.0684 10.6133 39.8379 9.82812 39.8379 8.85938V8.77734ZM40.9219 8.90039C40.9219 9.61914 41.0703 10.1816 41.3672 10.5879 41.6641 10.9941 42.0742 11.1973 42.5977 11.1973 43.2852 11.1973 43.7871 10.8887 44.1035 10.2715V7.35938C43.7793 6.76172 43.2812 6.46289 42.6094 6.46289 42.0781 6.46289 41.6641 6.66797 41.3672 7.07812 41.0703 7.48828 40.9219 8.0957 40.9219 8.90039ZM55.2188 8.90039C55.2188 9.86914 54.9961 10.6484 54.5508 11.2383 54.1055 11.8242 53.5078 12.1172 52.7578 12.1172 51.957 12.1172 51.3379 11.834 50.9004 11.2676L50.8477 12H49.8516V3H50.9355V6.35742C51.373 5.81445 51.9766 5.54297 52.7461 5.54297 53.5156 5.54297 54.1191 5.83398 54.5566 6.41602 54.998 6.99805 55.2188 7.79492 55.2188 8.80664V8.90039ZM54.1348 8.77734C54.1348 8.03906 53.9922 7.46875 53.707 7.06641 53.4219 6.66406 53.0117 6.46289 52.4766 6.46289 51.7617 6.46289 51.248 6.79492 50.9355 7.45898V10.2012C51.2676 10.8652 51.7852 11.1973 52.4883 11.1973 53.0078 11.1973 53.4121 10.9961 53.7012 10.5938 53.9902 10.1914 54.1348 9.58594 54.1348 8.77734ZM58.5938 10.4121 60.0703 5.66016H61.2305L58.6816 12.9785C58.2871 14.0332 57.6602 14.5605 56.8008 14.5605L56.5957 14.543 56.1914 14.4668V13.5879L56.4844 13.6113C56.8516 13.6113 57.1367 13.5371 57.3398 13.3887 57.5469 13.2402 57.7168 12.9688 57.8496 12.5742L58.0898 11.9297 55.8281 5.66016H57.0117L58.5938 10.4121Z"/></g></symbol><symbol id="favicon"><path id="favicon" d="M262.562 8.28859V24.4295V56.7114L221.428 97.2819V121.711L213.113 130H237.619L262.125 154.43V178.859L253.81 186.711H212.676V178.859H179.855V211.141H212.676V202.852H253.81L262.125 211.141V235.57L237.619 260H155.787L131.281 234.698V153.993L155.787 129.564H180.293L171.978 121.275V96.8456L131.281 56.7114V121.275L122.967 129.564H90.1464L49.0116 88.9933V121.275L40.6972 129.564H8.31448L0 121.275V7.85235L8.31448 0H41.1348L82.2695 40.5705V8.28859L90.1464 0H122.967L131.281 8.28859L139.596 0H172.416L180.73 8.28859V24.4295L196.922 40.5705L213.551 24.4295V8.28859L221.428 0H254.248L262.562 8.28859ZM257.311 140.47C254.248 140.47 251.622 138.289 251.622 134.799C251.622 131.309 254.248 129.128 257.311 129.128C260.374 129.128 263 131.309 263 134.799C262.562 138.289 259.937 140.47 257.311 140.47ZM257.311 130.436C254.686 130.436 252.935 132.181 252.935 134.799C252.935 137.416 254.686 139.597 257.311 139.597C259.937 139.597 261.687 137.852 261.687 134.799C261.25 132.181 259.499 130.436 257.311 130.436ZM255.998 138.289H255.123V132.181H257.311C258.624 132.181 259.499 132.617 259.499 133.926C259.499 135.235 258.624 135.671 257.749 135.671L259.499 138.289H258.186L256.436 135.671H255.561V138.289H255.998ZM257.311 134.799C258.186 134.799 258.624 134.799 258.624 133.926C258.624 133.054 257.749 133.054 257.311 133.054H255.998V134.799H257.311Z"/><style>#favicon{fill:#217ceb}@media (prefers-color-scheme:light){#favicon{fill:#004cbe}}</style></symbol></svg>