<svg width="48" height="48" viewBox="0 0 48 48" fill="none" xmlns="http://www.w3.org/2000/svg"><path d="M33.25 8.00024C32.17 8.00024 31.14 8.20025 30.18 8.55025C29 5.59025 26.12 3.50024 22.75 3.50024C18.45 3.50024 14.95 6.90025 14.77 11.1502C14.28 11.0502 13.77 11.0002 13.25 11.0002C9.10997 11.0002 5.74997 14.3602 5.74997 18.5002C5.74997 22.6402 9.10997 26.0002 13.25 26.0002H33.25C38.22 26.0002 42.25 21.9702 42.25 17.0002C42.25 12.0302 38.22 8.00024 33.25 8.00024Z"/><path d="M18.5 43.0001V19.3601M29.5 43.0001V19.3601M18.5 24.1704H29.5M18.5 30.9998H29.5M18.5 38.0002H29.5" stroke="currentColor" fill="transparent" stroke-width="4" stroke-miterlimit="10" stroke-linecap="round"/></svg>