<?xml version="1.0" encoding="UTF-8"?><!DOCTYPE svg PUBLIC "-//W3C//DTD SVG 1.1//EN" "http://www.w3.org/Graphics/SVG/1.1/DTD/svg11.dtd"><svg xmlns="http://www.w3.org/2000/svg" xmlns:xlink="http://www.w3.org/1999/xlink"><defs><clipPath id="clip0_4244_93116"><rect width="50" height="50" rx="25" fill="#fff"/></clipPath></defs><symbol id="program-work" viewBox="0 0 48 48"><ellipse cx="20" cy="33" rx="17" ry="12" fill="currentColor"/><circle cx="20" cy="12" r="10" fill="currentColor"/><path d="M33.8748 45.4894C39.4669 45.4894 44.0001 40.9562 44.0001 35.3641C44.0001 29.772 39.4669 25.2388 33.8748 25.2388C28.2827 25.2388 23.7495 29.772 23.7495 35.3641C23.7495 40.9562 28.2827 45.4894 33.8748 45.4894Z"/><path d="M34.0267 35.6695H32.713V36.2278L33.1149 36.6153L34.0267 35.6695ZM33.1149 36.6153L37.0882 40.4458L38.9118 38.5542L34.9385 34.7237L33.1149 36.6153ZM35.3405 35.6695V28.9128H32.713V35.6695H35.3405Z" fill="#fff"/></symbol><symbol id="program-people-disabilities" viewBox="0 0 48 48"><path d="M23.8835 2L32.3301 8.30435L42.3786 5.22222L38.7379 14.8889L45 23.1546L34.2233 22.8744L27.9612 31L25.0485 21.1932L15 17.971L23.7379 12.2271L23.8835 2Z"/><path d="M8.6443 25L14.698 29.48L22.0805 27.38L19.4228 34.24L24 40.26L16.1745 39.98L11.5973 46L9.38255 38.86L2 36.48L8.49665 32.42L8.6443 25V25Z" fill="currentColor"/></symbol><symbol id="program-identification" viewBox="0 0 48 48"><rect x="2" y="10" width="44" height="28" rx="1" fill="currentColor"/><path d="M42 26H27V29H42V26ZM42 19H27V22H42V19Z"/><path fill="#FFF" d="M6 15H23V33H6z"/><path d="M7 33.0001C7 32.8412 7 32.5235 7 32.3647C7 28.5519 10.314 25.5334 14.5 25.5334C18.686 25.5334 22 28.5519 22 32.3647C22 32.5235 22 32.8412 22 33.0001"/><path d="M14.4999 26.0667C17.0147 26.0667 19.0534 24.037 19.0534 21.5333C19.0534 19.0296 17.0147 17 14.4999 17C11.985 17 9.94629 19.0296 9.94629 21.5333C9.94629 24.037 11.985 26.0667 14.4999 26.0667Z"/></symbol><symbol id="program-housing" viewBox="0 0 48 48"><path d="M25.9999 46H2.99995V31.1685L14.4999 23L25.8544 31.0124L25.9999 31.1685V46Z" fill="currentColor"/><path d="M7.99987 39.0005 7.99987 43.0005 11.9999 43.0005 11.9999 39.0005 7.99987 39.0005ZM7.99987 31 7.99987 35 11.9999 35 11.9999 31 7.99987 31ZM16 39.0005 16 43.0005 20 43.0005 20 39.0005 16 39.0005ZM16 31 16 35 20 35 20 31 16 31Z" fill="#fff"/><path d="M42.9999 4.00024H23.9999V46.0002H42.9999V4.00024Z"/><path d="M39.9999 39.0002H35.9999V43.0002H39.9999V39.0002ZM30.9999 39.0002H26.9999V43.0002H30.9999V39.0002ZM39.9999 31H35.9999V35H39.9999V31ZM30.9999 31H26.9999V35H30.9999V31ZM39.9999 23H35.9999V27H39.9999V23ZM30.9999 23H26.9999V27H30.9999V23ZM39.9999 15H35.9999V19H39.9999V15ZM30.9999 15H26.9999V19H30.9999V15ZM39.9999 7H35.9999V11H39.9999V7ZM30.9999 7H26.9999V11H30.9999V7Z" fill="#fff"/><path d="M22 2H45V4H22z"/></symbol><symbol id="program-health" viewBox="0 0 48 48"><path d="M42.2254 26.5514L24 45L5.7746 26.5514C0.741798 21.457 0.7418 13.1973 5.7746 8.10285C10.8074 3.00841 18.9672 4.63622 24 9.73065C29.0328 4.63622 37.1926 3.00841 42.2254 8.10285C47.2582 13.1973 47.2582 21.457 42.2254 26.5514Z" fill="currentColor"/><path d="M21 16H27V32H21z"/><path transform="rotate(90 32 21)" d="M32 21H38V37H32z"/></symbol><symbol id="program-food" viewBox="0 0 48 48"><path d="M24.9399 8.16528C23.5077 3.78992 19.0354 1.8064 14.8354 2.41819C15.2599 6.64979 18.0457 10.5455 22.3283 11.1565C24.8452 11.5155 25.7369 10.5999 24.9399 8.16528Z"/><path d="M31.7652 12.6899C28.2606 12.6899 25.5274 13.408 24.1069 15.5621C22.6865 13.408 19.9533 12.6899 16.4487 12.6899C-4.30152 12.6899 5.64142 45.72 18.4254 45.72C21.2662 45.72 22.6865 44.3004 24.107 44.3004C25.5274 44.3004 26.9479 45.72 29.7885 45.72C41.8622 45.72 52.5154 12.6899 31.7652 12.6899Z" fill="currentColor"/></symbol><symbol id="program-family-services" viewBox="0 0 48 48"><ellipse cx="24" cy="32" rx="17" ry="13" fill="currentColor"/><circle cx="24" cy="12" r="9" fill="currentColor"/><path clip-rule="evenodd" d="M15.9033 43.3264C15.3869 42.4809 15.0991 41.5405 15.0991 40.5496C15.0991 36.8629 19.0841 33.8741 23.9998 33.8741C28.9155 33.8741 32.9005 36.8629 32.9005 40.5496C32.9005 41.5404 32.6127 42.4808 32.0964 43.3262C29.6985 44.3926 26.9377 45 23.9997 45C21.0617 45 18.3011 44.3927 15.9033 43.3264Z"/><circle cx="24" cy="30" r="5"/></symbol><symbol id="program-enrichment" viewBox="0 0 48 48"><path d="M24.0001 34.2666C29.6702 34.2666 34.2667 29.6701 34.2667 23.9999C34.2667 18.3298 29.6702 13.7333 24.0001 13.7333C18.3299 13.7333 13.7334 18.3298 13.7334 23.9999C13.7334 29.6701 18.3299 34.2666 24.0001 34.2666Z" fill="currentColor"/><path stroke="currentColor" stroke-width="3" stroke-linecap="round" d="M24 3 24 10M45 24 38 24M24 38 24 45M10 24 3 24M39.127 8.821 34.319 13.629M13.2 34.748 8.391 39.556M39.179 39.127 34.371 34.318M13.252 13.2 8.443 8.391"/></symbol><symbol id="program-english-math" viewBox="0 0 48 48"><path d="M21.36 32.8301 26.14 39.8601 28.93 24.0801H44M39.57 35.94 34.14 30.3M34.14 36.07 39.57 30.3M5.87 11.1399V20.3799M12.32 20.8201 5.87 20.8501M12.32 11.1399H5.87M12.03 16H5.87M16.28 20.8399V11.1399L24.23 20.8499V11.1399" stroke="currentColor" fill="transparent" stroke-width="2.74" stroke-linecap="round" stroke-linejoin="round"/></symbol><symbol id="program-education" viewBox="0 0 48 48"><path d="M37.7638 23.4844V29.6768C37.7638 30.4331 37.3372 31.1248 36.6613 31.4641L24.8974 37.3711C24.3327 37.6546 23.6672 37.6546 23.1025 37.3711L11.3386 31.4641C10.6627 31.1248 10.2361 30.4331 10.2361 29.6768V23.4844L23.9999 30.3663 37.7638 23.4844ZM8 19H7V34H8V19ZM7.49223 34 9.73447 39.9793H5.25L7.49223 34V34Z" fill="currentColor"/><path d="M23.757 8.05631C23.9107 7.98123 24.0893 7.98123 24.2431 8.05631L44.3238 17.8607C44.7543 18.0709 44.7528 18.6993 44.3213 18.9074L24.2407 28.5907C24.0883 28.6642 23.9118 28.6642 23.7594 28.5907L3.67873 18.9074C3.24723 18.6993 3.24576 18.0709 3.67628 17.8607L23.757 8.05631Z" fill="currentColor"/><path d="M24.0001 20.0434C24.792 20.0434 25.4339 19.4015 25.4339 18.6096C25.4339 17.8178 24.792 17.1759 24.0001 17.1759C23.2083 17.1759 22.5664 17.8178 22.5664 18.6096C22.5664 19.4015 23.2083 20.0434 24.0001 20.0434Z"/><circle cx="7.5" cy="34.5" r="1.5" fill="currentColor"/></symbol><symbol id="program-child-care" viewBox="0 0 48 48"><path d="M18.3076 23.5215 8.94318 28.1483M30.4553 23.5215 39.9716 28.2418" stroke="currentColor" stroke-width="7.5" stroke-linecap="round"/><path d="M31.3232 37.4048 39.9717 42.0316M17.4399 37.4048 9.08359 42.2928" stroke="currentColor" stroke-width="10" stroke-linecap="round"/><path d="M28.0884 41.743H20.6743C15.9977 41.743 12.2336 37.5839 12.2336 32.4165V28.5095C12.2336 23.3421 15.9977 19.183 20.6743 19.183H28.0884C32.765 19.183 36.5291 23.3421 36.5291 28.5095V32.4165C36.5291 37.5839 32.6509 41.743 28.0884 41.743V41.743Z" fill="currentColor"/><path d="M25.2495 40.0076H23.5141C20.1737 40.0076 15.7048 36.4883 15.7048 32.1159V28.81C15.7048 24.4376 18.3935 20.9183 21.7339 20.9183H27.0297C30.3701 20.9183 33.0587 24.4376 33.0587 28.81V32.1159C33.0587 36.4883 28.5084 40.0076 25.2495 40.0076Z"/><path d="M13.1017 10.506C15.4977 10.506 17.4401 8.56364 17.4401 6.16757 17.4401 3.7715 15.4977 1.8291 13.1017 1.8291 10.7056 1.8291 8.76318 3.7715 8.76318 6.16757 8.76318 8.56364 10.7056 10.506 13.1017 10.506ZM35.6617 10.506C38.0578 10.506 40.0002 8.56364 40.0002 6.16757 40.0002 3.7715 38.0578 1.8291 35.6617 1.8291 33.2656 1.8291 31.3232 3.7715 31.3232 6.16757 31.3232 8.56364 33.2656 10.506 35.6617 10.506Z" fill="currentColor"/><path d="M24.3814 22.6538C19.7048 22.6538 12.2336 18.0761 12.2336 13.5136V10.0639C12.2336 5.50136 15.9977 1.8291 20.6743 1.8291H28.0884C32.765 1.8291 36.5291 5.50136 36.5291 10.0639V13.5136C36.5291 18.0761 28.9439 22.6538 24.3814 22.6538Z" fill="currentColor"/><circle cx="19.5" cy="8.5" r="1.5"/><circle cx="29.5" cy="8.5" r="1.5"/><ellipse cx="24.5" cy="16.5" rx="5.5" ry="4.5"/><circle cx="24.5" cy="15.5" r="1.5" fill="currentColor"/></symbol><symbol id="program-certification" viewBox="0 0 48 48"><path d="M7.16 12H40.25C41.49 12 42.5 13.01 42.5 14.25V30.74C42.5 31.98 41.49 32.99 40.25 32.99H7.75C6.51 32.99 5.5 31.98 5.5 30.74V13.66C5.5 12.74 6.24 12 7.16 12V12Z" fill="currentColor"/><path d="M38.75 23.3572C38.75 19.6272 35.73 16.6072 32 16.6072C28.27 16.6072 25.25 19.6272 25.25 23.3572C25.25 25.6972 26.44 27.7572 28.25 28.9672V36.9772C28.25 37.2372 28.47 37.4172 28.68 37.3272L31.89 35.8072C31.96 35.7772 32.05 35.7772 32.12 35.8072L35.33 37.3272C35.53 37.4272 35.76 37.2472 35.76 36.9772V28.9672C37.57 27.7572 38.76 25.6972 38.76 23.3572H38.75Z"/><path d="M10 18.5H21.32M10 22.4299H21.5M10 26.3501H21.32" stroke="#fff" stroke-width="2" stroke-miterlimit="10"/></symbol><symbol id="program-cash-expenses" viewBox="0 0 48 48"><rect x="2" y="10" width="44" height="28" rx="1" fill="currentColor"/><circle cx="24" cy="24" r="11"/><path d="M20 27.9189C20 27.9189 21.5909 29 23.8182 29 25.0909 29 27 28.4595 27 26.8378 27 25.4865 25.9081 24.8876 23.5 23.8649 23.3139 23.7858 22.8636 23.5946 22.2273 23.3243 20.9545 22.7838 20.6364 21.973 20.6364 21.1622 20.6364 20.187 21.5909 19 23.8182 19 25.3455 19 26.5758 19.7207 27 20.0811M24 19 24 16M24 32 24 29" stroke="#fff" stroke-width="2.1" fill="transparent"/></symbol><symbol id="program-career-services" viewBox="0 0 61 60"><rect fill="#e3f1fd" height="60" rx="30" width="60" x=".319" y=".006"/><g stroke="#000" stroke-linecap="round" stroke-linejoin="round" stroke-width="2"><path d="m39.0691 32.5063c1.8625-1.825 3.75-4.0125 3.75-6.875 0-1.8233-.7243-3.572-2.0136-4.8613s-3.038-2.0137-4.8614-2.0137c-2.2 0-3.75.625-5.625 2.5-1.875-1.875-3.425-2.5-5.625-2.5-1.8233 0-3.572.7244-4.8613 2.0137s-2.0137 3.038-2.0137 4.8613c0 2.875 1.875 5.0625 3.75 6.875l8.75 8.75z"/><path d="m30.3191 21.2563-3.7 3.7c-.2539.2522-.4555.5521-.5931.8825-.1375.3303-.2083.6847-.2083 1.0425 0 .3579.0708.7123.2083 1.0426.1376.3304.3392.6303.5931.8824 1.025 1.025 2.6625 1.0625 3.75.0875l2.5875-2.375c.6486-.5885 1.493-.9145 2.3688-.9145.8757 0 1.7202.326 2.3687.9145l3.7 3.325M37.8191 33.7563l-2.5-2.5M34.0691 37.5063l-2.5-2.5"/></g></symbol><symbol id="program-card-work" viewBox="0 0 60 60"><rect width="60" height="60" rx="30" fill="#E3F1FD"/><path d="M40.3333 23.5417L19.6667 23.5417C18.2399 23.5417 17.0833 24.6983 17.0833 26.125L17.0833 39.0417C17.0833 40.4684 18.2399 41.625 19.6667 41.625L40.3333 41.625C41.7601 41.625 42.9167 40.4684 42.9167 39.0417L42.9167 26.125C42.9167 24.6983 41.7601 23.5417 40.3333 23.5417Z" stroke="#031837" stroke-width="2" stroke-linecap="round" stroke-linejoin="round"/><path d="M35.1667 41.625L35.1667 20.9583C35.1667 20.2732 34.8945 19.6161 34.41 19.1316C33.9256 18.6472 33.2685 18.375 32.5833 18.375L27.4167 18.375C26.7315 18.375 26.0744 18.6472 25.59 19.1316C25.1055 19.6161 24.8333 20.2732 24.8333 20.9583L24.8333 41.625" stroke="#031837" stroke-width="2" stroke-linecap="round" stroke-linejoin="round"/></symbol><symbol id="program-card-people-disabilities" viewBox="0 0 48 48"><path d="M24 48C37.2548 48 48 37.2548 48 24C48 10.7452 37.2548 0 24 0C10.7452 0 0 10.7452 0 24C0 37.2548 10.7452 48 24 48Z"/><path d="M24 44C35.0457 44 44 35.0457 44 24C44 12.9543 35.0457 4 24 4C12.9543 4 4 12.9543 4 24C4 35.0457 12.9543 44 24 44Z" fill="currentColor"/><path d="M24.1209 10 29.3766 14.0777 35.6291 12.0842 33.3637 18.3367 37.2602 23.6831 30.5546 23.5018 26.6581 28.7576 24.8458 22.4145 18.5933 20.3303 24.0302 16.615 24.1209 10V10ZM14.4305 24.4075 18.1458 27.3072 22.6766 25.948 21.0455 30.3882 23.8546 34.2847 19.052 34.1034 16.2429 37.9999 14.8836 33.3785 10.3528 31.838 14.3399 29.2101 14.4305 24.4075V24.4075Z" fill="#fff"/></symbol><symbol id="program-card-identification" viewBox="0 0 48 48"><path d="M24 48C37.2548 48 48 37.2548 48 24C48 10.7452 37.2548 0 24 0C10.7452 0 0 10.7452 0 24C0 37.2548 10.7452 48 24 48Z"/><path d="M24 44.0003C35.0457 44.0003 44 35.0459 44 24.0002C44 12.9545 35.0457 4.00024 24 4.00024C12.9543 4.00024 4.00003 12.9545 4.00003 24.0002C4.00003 35.0459 12.9543 44.0003 24 44.0003Z" fill="currentColor"/><rect x="10" y="15" width="28" height="18" rx="1.051" fill="#fff"/><path d="M35.0002 25H27.0002V27H35.0002V25ZM35.0003 20.9998H27.0003V22.9998H35.0003V20.9998ZM13 18H25V30H13z" fill="currentColor"/><path d="M14 30C14 29.8922 14 29.6765 14 29.5686C14 26.9803 16.2093 24.9312 19 24.9312C21.7907 24.9312 24 26.9803 24 29.5686C24 29.6765 24 29.8922 24 30" fill="#fff"/><path d="M19 25.5C20.6569 25.5 22 24.1569 22 22.5C22 20.8431 20.6569 19.5 19 19.5C17.3432 19.5 16 20.8431 16 22.5C16 24.1569 17.3432 25.5 19 25.5Z" fill="#fff"/></symbol><symbol id="program-card-housing" viewBox="0 0 61 60"><rect x=".319" y=".006" width="60" height="60" rx="30" fill="#E3F1FD"/><path d="M37.8191 17.5063L22.8191 17.5063C22.1561 17.5063 21.5202 17.7697 21.0514 18.2386C20.5825 18.7074 20.3191 19.3433 20.3191 20.0063L20.3191 40.0063C20.3191 40.6694 20.5825 41.3053 21.0514 41.7741C21.5202 42.243 22.1561 42.5063 22.8191 42.5063L37.8191 42.5063C38.4822 42.5063 39.118 42.243 39.5869 41.7741C40.0557 41.3053 40.3191 40.6694 40.3191 40.0063L40.3191 20.0063C40.3191 19.3433 40.0557 18.7074 39.5869 18.2386C39.118 17.7697 38.4822 17.5063 37.8191 17.5063Z" stroke="#031837" stroke-width="2" stroke-linecap="round" stroke-linejoin="round"/><path d="M26.5691 35.0064 27.0041 34.7064C28.8354 33.4402 31.8041 33.4402 33.6341 34.7064L34.0691 35.0064M25.3191 23.7563 25.3316 23.7563M35.3191 23.7563 35.3316 23.7563M30.3191 23.7563 30.3316 23.7563M30.3191 28.7563 30.3316 28.7563M35.3191 28.7563 35.3316 28.7563M25.3191 28.7563 25.3316 28.7563M27.8191 42.5063 27.8191 34.3813M32.8191 34.3813 32.8191 42.5063" stroke="#031837" stroke-width="2" stroke-linecap="round" stroke-linejoin="round"/></symbol><symbol id="program-card-health" viewBox="0 0 48 48"><path d="M24 48C37.2548 48 48 37.2548 48 24C48 10.7452 37.2548 0 24 0C10.7452 0 0 10.7452 0 24C0 37.2548 10.7452 48 24 48Z"/><path d="M24 44C35.0457 44 44 35.0457 44 24C44 12.9543 35.0457 4 24 4C12.9543 4 4 12.9543 4 24C4 35.0457 12.9543 44 24 44Z" fill="currentColor"/><path d="M35.3334 26.6668L24 38.0001L12.6666 26.6668C9.53701 23.5371 9.53701 18.463 12.6666 15.3334C15.7963 12.2038 20.8704 13.2038 24 16.3334C27.1296 13.2038 32.2037 12.2038 35.3334 15.3334C38.463 18.463 38.463 23.5371 35.3334 26.6668Z" fill="#fff"/><path fill="currentColor" d="M22 20H26V30H22z"/><path transform="rotate(90 29 23)" fill="currentColor" d="M29 23H33V33H29z"/></symbol><symbol id="program-card-government" viewBox="0 0 50 50"><g clip-path="url(#clip0_4244_93116)"><rect width="50" height="50" rx="25" fill="#E3F1FD"/><rect x="-5" y="-5" width="60" height="60" rx="30" fill="#E3F1FD"/><path d="M18 31V24H20V31H18ZM24 31V24H26V31H24ZM15 35V33H35V35H15ZM30 31V24H32V31H30ZM15 22V20L25 15L35 20V22H15ZM19.45 20H30.55L25 17.25L19.45 20Z" fill="#000"/></g></symbol><symbol id="program-card-food" viewBox="0 0 60 60"><rect width="60" height="60" rx="30" fill="#E3F1FD"/><path d="M30 41.1751C31.875 41.1751 33.4375 42.5001 35 42.5001C38.75 42.5001 42.5 32.5001 42.5 27.2251C42.4574 25.606 41.7765 24.0694 40.6058 22.9502C39.4351 21.8309 37.8694 21.2198 36.25 21.2501C33.475 21.2501 31.25 23.0501 30 23.7501C28.75 23.0501 26.525 21.2501 23.75 21.2501C22.1297 21.2165 20.5621 21.8265 19.3907 22.9464C18.2192 24.0664 17.5393 25.6049 17.5 27.2251C17.5 32.5001 21.25 42.5001 25 42.5001C26.5625 42.5001 28.125 41.1751 30 41.1751Z" stroke="#031837" stroke-width="2" stroke-linecap="round" stroke-linejoin="round"/><path d="M27.5 17.5C28.75 18.125 30 20 30 23.75" stroke="#031837" stroke-width="2" stroke-linecap="round" stroke-linejoin="round"/></symbol><symbol id="program-card-family-services" viewBox="0 0 48 48"><path d="M24 48C37.2548 48 48 37.2548 48 24C48 10.7452 37.2548 0 24 0C10.7452 0 0 10.7452 0 24C0 37.2548 10.7452 48 24 48Z"/><path d="M24 44C35.0457 44 44 35.0457 44 24C44 12.9543 35.0457 4 24 4C12.9543 4 4 12.9543 4 24C4 35.0457 12.9543 44 24 44Z" fill="currentColor"/><ellipse cx="24" cy="29.5" rx="11" ry="8.5" fill="#fff"/><circle cx="24" cy="16" r="6" fill="#fff"/><ellipse cx="24" cy="35.5" rx="6" ry="4.5" fill="currentColor"/><circle cx="24" cy="28" r="4" fill="currentColor"/></symbol><symbol id="program-card-enrichment" viewBox="0 0 48 48"><path d="M24 48C37.2548 48 48 37.2548 48 24C48 10.7452 37.2548 0 24 0C10.7452 0 0 10.7452 0 24C0 37.2548 10.7452 48 24 48Z"/><path d="M24 44C35.0457 44 44 35.0457 44 24C44 12.9543 35.0457 4 24 4C12.9543 4 4 12.9543 4 24C4 35.0457 12.9543 44 24 44Z" fill="currentColor"/><path d="M24 31C27.866 31 31 27.866 31 24C31 20.134 27.866 17 24 17C20.134 17 17 20.134 17 24C17 27.866 20.134 31 24 31Z" fill="#fff"/><path stroke="#fff" stroke-width="2" stroke-linecap="round" d="M24 10 24 14M38 24 34 24M24 34 24 38M14 24 10 24M34.314 14.101 31.485 16.929M16.636 31.778 13.808 34.607M33.9 34.314 31.071 31.485M16.222 16.636 13.393 13.808"/></symbol><symbol id="program-card-english-math" viewBox="0 0 61 60"><rect x=".319" y=".006" width="60" height="60" rx="30" fill="#E3F1FD"/><path fill-rule="evenodd" clip-rule="evenodd" d="M24.5546 17.5361C24.2962 17.1921 23.8466 17.052 23.4385 17.1882C23.0303 17.3245 22.7551 17.7065 22.7551 18.1368L22.7551 26.1515C22.7551 26.7038 23.2028 27.1515 23.7551 27.1515C24.3074 27.1515 24.7551 26.7038 24.7551 26.1515L24.7551 21.1327L28.9853 26.7634C29.2438 27.1074 29.6933 27.2476 30.1014 27.1113C30.5096 26.9751 30.7848 26.5931 30.7848 26.1628L30.7848 18.1368C30.7848 17.5845 30.3371 17.1368 29.7848 17.1368C29.2325 17.1368 28.7848 17.5845 28.7848 18.1368L28.7848 23.1669L24.5546 17.5361ZM15.8569 17.1368L20.7451 17.1368C21.2973 17.1368 21.7451 17.5845 21.7451 18.1368C21.7451 18.6891 21.2973 19.1368 20.7451 19.1368L16.8569 19.1368L16.8569 21.1496L20.5271 21.1496C21.0794 21.1496 21.5271 21.5973 21.5271 22.1496C21.5271 22.7019 21.0794 23.1496 20.5271 23.1496L16.8569 23.1496L16.8569 25.1582L20.7404 25.1402C21.2927 25.1376 21.7425 25.5833 21.7451 26.1356C21.7476 26.6878 21.302 27.1376 20.7497 27.1402L15.8616 27.1628C15.3093 27.1653 14.8595 26.7197 14.8569 26.1674C14.8566 26.1001 14.863 26.0343 14.8754 25.9706C14.8633 25.9084 14.8569 25.8442 14.8569 25.7784L14.8569 22.1496L14.8569 18.1368C14.8569 17.5845 15.3046 17.1368 15.8569 17.1368ZM33.3549 27.8307C32.8647 27.8307 32.4468 28.186 32.3679 28.6698L30.6686 39.0892L28.454 35.5364C28.1618 35.0678 27.5451 34.9247 27.0764 35.2168C26.6077 35.509 26.4646 36.1258 26.7568 36.5945L30.3787 42.4048C30.5991 42.7583 31.0155 42.9382 31.424 42.8563C31.8324 42.7744 32.1473 42.4479 32.2143 42.0368L34.205 29.8307L44.7813 29.8307C45.3336 29.8307 45.7813 29.383 45.7813 28.8307C45.7813 28.2785 45.3336 27.8307 44.7813 27.8307L33.3549 27.8307ZM38.0576 33.3114C37.6916 32.8977 37.0596 32.859 36.646 33.225C36.2323 33.5909 36.1937 34.2229 36.5596 34.6365L38.0621 36.3349L36.5525 38.0785C36.1911 38.496 36.2365 39.1276 36.6541 39.4891C37.0716 39.8505 37.7031 39.8051 38.0646 39.3876L39.399 37.8462L40.6797 39.2939C41.0457 39.7075 41.6777 39.7462 42.0913 39.3803C42.505 39.0143 42.5436 38.3823 42.1777 37.9687L40.7198 36.3207L42.1848 34.6285C42.5463 34.2109 42.5008 33.5794 42.0833 33.2179C41.6657 32.8564 41.0342 32.9019 40.6727 33.3194L39.3828 34.8094L38.0576 33.3114Z" fill="#031837"/></symbol><symbol id="program-card-education" viewBox="0 0 61 60"><rect x=".319" y=".006" width="60" height="60" rx="30" fill="#E3F1FD"/><path fill-rule="evenodd" clip-rule="evenodd" d="M24.5546 17.5361C24.2962 17.1921 23.8466 17.052 23.4385 17.1882C23.0303 17.3245 22.7551 17.7065 22.7551 18.1368L22.7551 26.1515C22.7551 26.7038 23.2028 27.1515 23.7551 27.1515C24.3074 27.1515 24.7551 26.7038 24.7551 26.1515L24.7551 21.1327L28.9853 26.7634C29.2438 27.1074 29.6933 27.2476 30.1014 27.1113C30.5096 26.9751 30.7848 26.5931 30.7848 26.1628L30.7848 18.1368C30.7848 17.5845 30.3371 17.1368 29.7848 17.1368C29.2325 17.1368 28.7848 17.5845 28.7848 18.1368L28.7848 23.1669L24.5546 17.5361ZM15.8569 17.1368L20.7451 17.1368C21.2973 17.1368 21.7451 17.5845 21.7451 18.1368C21.7451 18.6891 21.2973 19.1368 20.7451 19.1368L16.8569 19.1368L16.8569 21.1496L20.5271 21.1496C21.0794 21.1496 21.5271 21.5973 21.5271 22.1496C21.5271 22.7019 21.0794 23.1496 20.5271 23.1496L16.8569 23.1496L16.8569 25.1582L20.7404 25.1402C21.2927 25.1376 21.7425 25.5833 21.7451 26.1356C21.7476 26.6878 21.302 27.1376 20.7497 27.1402L15.8616 27.1628C15.3093 27.1653 14.8595 26.7197 14.8569 26.1674C14.8566 26.1001 14.863 26.0343 14.8754 25.9706C14.8633 25.9084 14.8569 25.8442 14.8569 25.7784L14.8569 22.1496L14.8569 18.1368C14.8569 17.5845 15.3046 17.1368 15.8569 17.1368ZM33.3549 27.8307C32.8647 27.8307 32.4468 28.186 32.3679 28.6698L30.6686 39.0892L28.454 35.5364C28.1618 35.0678 27.5451 34.9247 27.0764 35.2168C26.6077 35.509 26.4646 36.1258 26.7568 36.5945L30.3787 42.4048C30.5991 42.7583 31.0155 42.9382 31.424 42.8563C31.8324 42.7744 32.1473 42.4479 32.2143 42.0368L34.205 29.8307L44.7813 29.8307C45.3336 29.8307 45.7813 29.383 45.7813 28.8307C45.7813 28.2785 45.3336 27.8307 44.7813 27.8307L33.3549 27.8307ZM38.0576 33.3114C37.6916 32.8977 37.0596 32.859 36.646 33.225C36.2323 33.5909 36.1937 34.2229 36.5596 34.6365L38.0621 36.3349L36.5525 38.0785C36.1911 38.496 36.2365 39.1276 36.6541 39.4891C37.0716 39.8505 37.7031 39.8051 38.0646 39.3876L39.399 37.8462L40.6797 39.2939C41.0457 39.7075 41.6777 39.7462 42.0913 39.3803C42.505 39.0143 42.5436 38.3823 42.1777 37.9687L40.7198 36.3207L42.1848 34.6285C42.5463 34.2109 42.5008 33.5794 42.0833 33.2179C41.6657 32.8564 41.0342 32.9019 40.6727 33.3194L39.3828 34.8094L38.0576 33.3114Z" fill="#031837"/></symbol><symbol id="program-card-child-care" viewBox="0 0 61 60"><rect fill="#e3f1fd" height="60" rx="30" width="60" x=".319" y=".006"/><g stroke="#031837" stroke-linecap="round" stroke-linejoin="round" stroke-width="2"><path d="M26.5691 30.0063h.0125M34.0691 30.0063h.0125M27.8191 35.0063c.625.375 1.5.625 2.5.625s1.875-.25 2.5-.625"/><path d="m39.0691 22.8813c1.1325 1.4196 1.9045 3.0923 2.25 4.875.4227.2048.7792.5244 1.0286.9223.2494.398.3817.8581.3817 1.3277 0 .4697-.1323.9298-.3817 1.3278-.2494.3979-.6059.7175-1.0286.9222-.5396 2.5169-1.926 4.7726-3.9279 6.3907-2.0018 1.6181-4.498 2.5009-7.0721 2.5009-2.574 0-5.0702-.8828-7.0721-2.5009-2.0018-1.6181-3.3882-3.8738-3.9279-6.3907-.4227-.2047-.7791-.5243-1.0285-.9222-.2495-.398-.3818-.8581-.3818-1.3278 0-.4696.1323-.9297.3818-1.3277.2494-.3979.6058-.7175 1.0285-.9223.5179-2.5368 1.8949-4.8174 3.8988-6.457s4.512-2.5377 7.1012-2.543c2.5 0 4.375 1.375 4.375 3.125s-1.125 3.125-2.5 3.125c-1 0-1.875-.5-1.875-1.25"/></g></symbol><symbol id="program-card-certification" viewBox="0 0 48 48"><path d="M24 48C37.2548 48 48 37.2548 48 24C48 10.7452 37.2548 0 24 0C10.7452 0 0 10.7452 0 24C0 37.2548 10.7452 48 24 48Z"/><path d="M24 44C35.0457 44 44 35.0457 44 24C44 12.9543 35.0457 4 24 4C12.9543 4 4 12.9543 4 24C4 35.0457 12.9543 44 24 44Z" fill="currentColor"/><path d="M12.16 16.3098H35.24C36.48 16.3098 37.49 17.3198 37.49 18.5598V29.3798C37.49 30.6198 36.48 31.6298 35.24 31.6298H12.75C11.51 31.6298 10.5 30.6198 10.5 29.3798V17.9698C10.5 17.0498 11.24 16.3098 12.16 16.3098Z" fill="#fff"/><path d="M34.76 24.8272C34.76 22.1072 32.55 19.8972 29.83 19.8972C27.11 19.8972 24.9 22.1072 24.9 24.8272C24.9 26.5372 25.77 28.0372 27.09 28.9172V34.7572C27.09 34.9472 27.25 35.0772 27.4 35.0072L29.74 33.8972C29.79 33.8672 29.85 33.8672 29.91 33.8972L32.25 35.0072C32.4 35.0772 32.56 34.9472 32.56 34.7572V28.9172C33.88 28.0372 34.75 26.5272 34.75 24.8272H34.76Z"/><path d="M22.17 21.7803H13.78V20.3203H22.17V21.7803ZM22.17 24.6504H13.78V23.1904H22.17V24.6504ZM13.78 27.5105H22.17V26.0505H13.78V27.5105Z" fill="currentColor"/></symbol><symbol id="program-card-cash-expenses" viewBox="0 0 48 48"><path d="M24 48C37.2548 48 48 37.2548 48 24C48 10.7452 37.2548 0 24 0C10.7452 0 0 10.7452 0 24C0 37.2548 10.7452 48 24 48Z"/><path d="M24 44C35.0457 44 44 35.0457 44 24C44 12.9543 35.0457 4 24 4C12.9543 4 4 12.9543 4 24C4 35.0457 12.9543 44 24 44Z" fill="currentColor"/><path d="M23.5 32C27.6421 32 31 28.6421 31 24.5C31 20.3579 27.6421 17 23.5 17C19.3579 17 16 20.3579 16 24.5C16 28.6421 19.3579 32 23.5 32Z" fill="currentColor"/><rect x="10" y="15" width="28" height="18" rx="1" fill="#fff"/><circle cx="24" cy="24" r="8" fill="currentColor"/><path d="M21 27.1351C21 27.1351 22.3636 28 24.2727 28C25.3636 28 27 27.5676 27 26.2703C27 25.1892 26.0641 24.7101 24 23.8919C23.8405 23.8287 23.4545 23.6757 22.9091 23.4595C21.8182 23.027 21.5455 22.3784 21.5455 21.7297C21.5455 20.9496 22.3636 20 24.2727 20C25.5818 20 26.6364 20.5766 27 20.8649" stroke="#fff" stroke-width="1.5" fill="transparent"/><path d="M24 20 24 18M24 30 24 28" stroke="#fff" stroke-width="1.5"/></symbol><symbol id="program-card-career-services" viewBox="0 0 61 60"><rect x=".319" y=".006" width="60" height="60" rx="30" fill="#E3F1FD"/><path d="M39.0691 32.5063C40.9316 30.6813 42.8191 28.4938 42.8191 25.6313C42.8191 23.808 42.0948 22.0593 40.8055 20.77C39.5162 19.4807 37.7675 18.7563 35.9441 18.7563C33.7441 18.7563 32.1941 19.3813 30.3191 21.2563C28.4441 19.3813 26.8941 18.7563 24.6941 18.7563C22.8708 18.7563 21.1221 19.4807 19.8328 20.77C18.5435 22.0593 17.8191 23.808 17.8191 25.6313C17.8191 28.5063 19.6941 30.6938 21.5691 32.5063L30.3191 41.2563L39.0691 32.5063Z" stroke="#031837" stroke-width="2" stroke-linecap="round" stroke-linejoin="round"/><path d="M30.3191 21.2563 26.6191 24.9563C26.3652 25.2085 26.1636 25.5084 26.026 25.8388 25.8885 26.1691 25.8177 26.5235 25.8177 26.8813 25.8177 27.2392 25.8885 27.5936 26.026 27.9239 26.1636 28.2543 26.3652 28.5542 26.6191 28.8063 27.6441 29.8313 29.2816 29.8688 30.3691 28.8938L32.9566 26.5188C33.6052 25.9303 34.4496 25.6043 35.3254 25.6043 36.2011 25.6043 37.0456 25.9303 37.6941 26.5188L41.3941 29.8438M37.8191 33.7563 35.3191 31.2563M34.0691 37.5063 31.5691 35.0063" stroke="#031837" stroke-width="2" stroke-linecap="round" stroke-linejoin="round"/></symbol><symbol id="nyco-person" viewBox="0 0 24 24"><ellipse cx="12" cy="16.5" rx="8" ry="5.5" stroke="currentColor" stroke-width="2"/><circle cx="11.5" cy="6.5" r="4.5" stroke="currentColor" stroke-width="2"/></symbol><symbol id="nyco-languages" viewBox="0 0 24 24"><path d="M3 16C4.5 15.1667 8 12.5 10 9.5C12 6.5 11.5 4 11.5 4M14.5 4H8.5M2.5 4H8.5M8.5 4V2.5M4.5 7C5.5 10 7.5 12.5 10 14.5M12 21L13.35 18M21 21L19.65 18M13.35 18L16.5 10.5C17.7302 13.2337 18.4198 15.2663 19.65 18M13.35 18H19.65"/></symbol><symbol id="nyco-accessibility" viewBox="0 0 24 24"><path d="M20.0888 10.975C19.8251 10.7044 19.4566 10.5616 19.0801 10.5822L14.5227 10.8359 17.0307 7.97945C17.388 7.57256 17.4901 7.03016 17.352 6.54548 17.2791 6.21336 17.0779 5.91117 16.7689 5.7181 16.7595 5.71133 10.7739 2.23419 10.7739 2.23419 10.2852 1.95027 9.66928 2.01282 9.24749 2.38903L6.32364 4.99716C5.78494 5.47765 5.73777 6.30387 6.21829 6.8426 6.69886 7.38126 7.52511 7.42858 8.06377 6.94791L10.2805 4.97059 12.113 6.03475 8.8783 9.71873C7.53699 9.93748 6.33014 10.5556 5.38275 11.4467L7.07193 13.1359C7.83553 12.4416 8.84942 12.0178 9.96041 12.0178 12.3301 12.0178 14.2581 13.9458 14.2581 16.3155 14.2581 17.4265 13.8343 18.4403 13.14 19.2039L14.8291 20.8931C15.9543 19.6969 16.6449 18.0874 16.6449 16.3155 16.6449 15.2599 16.3998 14.2616 15.964 13.3738L17.7281 13.2756 17.299 18.5394C17.2403 19.2589 17.7761 19.8896 18.4956 19.9483 18.5316 19.9513 18.5676 19.9527 18.6032 19.9527 19.2769 19.9527 19.8489 19.435 19.9045 18.7517L20.4553 11.9935C20.4861 11.6169 20.3524 11.2455 20.0888 10.975ZM17.668 5.37585C18.8763 5.37585 19.8557 4.39632 19.8557 3.18794 19.8557 1.97963 18.8763 1 17.668 1 16.4596 1 15.4801 1.97963 15.4801 3.18794 15.4801 4.39632 16.4595 5.37585 17.668 5.37585ZM9.96055 20.6132C7.59079 20.6132 5.66283 18.6852 5.66283 16.3155 5.66283 15.4224 5.93685 14.5923 6.40493 13.9043L4.69752 12.1969C3.80786 13.3322 3.276 14.7614 3.276 16.3155 3.276 20.0073 6.26874 23 9.96055 23 11.5147 23 12.9438 22.4681 14.079 21.5785L12.3717 19.8711C11.6837 20.3391 10.8536 20.6132 9.96055 20.6132Z" fill="currentColor"/></symbol><symbol id="logo-nyc" viewBox="0 0 456 152"><path d="M446.505 66.3803 456 57.0104V28.5052L427.495 0H332.505L304 28.5052V9.51562L294.505 0H256.505L247.01 9.51562V28.5052L228 47.5156 209.01 28.5052V9.51562L199.495 0H161.495L152 9.51562 142.505 0H104.505L95.0104 9.51562V47.5156L47.4948 0H9.49479L0 9.51562V142.505L9.49479 152H47.4948L57.0104 142.505V104.505L104.505 152H142.505L152 142.505V66.5052L199.495 114V142.505L209.01 152H247.01L256.505 142.505V114L304 66.5052V123.516L332.505 152H427.495L456 123.516V95.0104L446.505 85.4948H398.99V95.0104H361.01V57.0104H398.99V66.3803H446.505ZM449.233 6.41315C450.128 6.41315 450.899 6.32986 450.899 5.28876 450.899 4.41424 450.045 4.31013 449.337 4.31013H447.9V6.41315H449.233ZM447.921 10.4942H446.734V3.31068H449.462C451.19 3.31068 452.085 3.91452 452.085 5.37205 452.085 6.68383 451.294 7.20438 450.211 7.32931L452.231 10.4942H450.899L449.045 7.4126H447.942V10.4942H447.921ZM449.191 1.41589C446.38 1.41589 444.194 3.62301 444.194 6.78794 444.194 9.74466 446.11 12.16 449.191 12.16 451.981 12.16 454.168 9.9737 454.168 6.78794 454.168 3.62301 451.981 1.41589 449.191 1.41589ZM449.191 13.2844C445.464 13.2844 442.799 10.4942 442.799 6.78794 442.799 2.87342 445.756.291504 449.191.291504 452.585.291504 455.542 2.87342 455.542 6.78794 455.563 10.6816 452.606 13.2844 449.191 13.2844Z" fill="currentColor"/></symbol><symbol id="logo-google-translate" viewBox="0 0 175 16"><path fill-rule="evenodd" clip-rule="evenodd" d="M128.789 4.79395C128.051 4.79395 127.023 5.31595 126.733 6.12728H126.675V4.90261H125.4V11.9999H126.733V8.18395C126.733 6.87995 127.66 6.11261 128.572 6.11261 128.862 6.11261 129.094 6.14128 129.282 6.21395L129.789 4.96861C129.514 4.85261 129.224 4.79395 128.789 4.79395ZM152.801 1.4606H154.133V11.9999H152.801V1.4606ZM148.658 4.79395C147.225 4.79395 145.891 5.59461 145.891 6.84461 145.891 8.05328 147.1 8.60061 147.732 8.75528L149.164 9.09261C149.895 9.27528 150.146 9.65461 150.146 10.0059 150.146 10.5813 149.529 10.9579 148.728 10.9579 147.899 10.9579 147.184 10.5539 146.819 9.66461L145.667 10.1426C146.074 11.1433 147.057 12.1273 148.715 12.1273 150.33 12.1273 151.467 11.1859 151.467 9.96395 151.467 9.12061 150.892 8.27795 149.529 7.95461L148.125 7.63128C147.577 7.50528 147.213 7.26661 147.213 6.83061 147.213 6.26861 147.885 5.96328 148.616 5.96328 149.29 5.96328 149.963 6.23061 150.231 6.87661L151.354 6.41328C150.933 5.35928 149.852 4.79395 148.658 4.79395ZM158.579 10.9286C157.904 10.9286 157.071 10.5813 157.071 9.85128 157.071 9.21928 157.679 8.52861 159.042 8.52861 160.138 8.52861 160.667 8.93795 160.667 8.93795 160.667 10.0619 159.604 10.9286 158.579 10.9286ZM158.859 4.79395C157.131 4.79395 156.158 5.79995 155.919 6.43195L157.099 6.93795C157.338 6.29195 158.171 5.99195 158.887 5.99195 159.857 5.99195 160.667 6.59395 160.667 7.68528V7.88261C160.399 7.72795 159.745 7.46061 158.817 7.46061 157.202 7.46061 155.701 8.26395 155.701 9.82328 155.701 11.2559 156.963 12.1273 158.367 12.1273 159.548 12.1273 160.231 11.4913 160.611 10.9153H160.667V11.9999H161.922V7.74395C161.922 5.80528 160.545 4.79395 158.859 4.79395ZM133.323 10.9286C132.649 10.9286 131.815 10.5813 131.815 9.85128 131.815 9.21928 132.424 8.52861 133.787 8.52861 134.882 8.52861 135.411 8.93795 135.411 8.93795 135.411 10.0619 134.349 10.9286 133.323 10.9286ZM133.604 4.79395C131.876 4.79395 130.902 5.79995 130.663 6.43195L131.843 6.93795C132.083 6.29195 132.915 5.99195 133.632 5.99195 134.601 5.99195 135.411 6.59395 135.411 7.68528V7.88261C135.144 7.72795 134.489 7.46061 133.561 7.46061 131.946 7.46061 130.446 8.26395 130.446 9.82328 130.446 11.2559 131.707 12.1273 133.112 12.1273 134.292 12.1273 134.975 11.4913 135.355 10.9153H135.411V11.9999H136.667V7.74395C136.667 5.80528 135.29 4.79395 133.604 4.79395ZM169.398 7.62328C169.655 6.61995 170.425 5.99195 171.396 5.99195 172.894 5.99195 173.407 7.02728 173.45 7.62328H169.398ZM171.424 4.79395C169.37 4.79395 168 6.50728 168 8.46061 168 10.5399 169.427 12.1273 171.567 12.1273 173.179 12.1273 174.207 11.2279 174.62 10.2446L173.45 9.76728C173.079 10.6386 172.309 10.9286 171.538 10.9286 170.454 10.9286 169.384 10.1606 169.313 8.70728H174.834C174.834 8.70728 174.849 8.55861 174.849 8.46061 174.849 6.24061 173.507 4.79395 171.424 4.79395ZM141.778 4.79395C140.807 4.79395 139.909 5.35861 139.533 6.00995H139.475V4.90261H138.2V11.9999H139.533V8.19728C139.533 7.11128 140.243 6.00995 141.401 6.00995 142.415 6.00995 143.154 6.50261 143.154 7.97995V11.9999H144.487V7.77795C144.487 6.02528 143.589 4.79395 141.778 4.79395ZM165.399 2.79395H164.067V4.90261H162.821V6.12995H164.067V9.85328C164.067 11.3019 164.863 12.1273 166.355 12.1273 166.804 12.1273 167.123 12.0693 167.427 11.9393L166.964 10.7946C166.775 10.8813 166.601 10.9106 166.355 10.9106 165.733 10.9106 165.399 10.5486 165.399 9.75128V6.12995H167.137V4.90261H165.399V2.79395ZM124.95 1.4606H117.733V2.82727H120.667V11.9939H122.017V2.82727H124.95V1.4606ZM72.16 5.58594V7.22461H76.082C75.9647 8.14661 75.6574 8.81994 75.1894 9.28794 74.618 9.85861 73.7254 10.4879 72.16 10.4879 69.7447 10.4879 67.8574 8.54194 67.8574 6.12727 67.8574 3.71261 69.7447 1.76661 72.16 1.76661 73.462 1.76661 74.4134 2.27861 75.116 2.93727L76.272 1.78061C75.2914.844607 73.9894.127274 72.16.127274 68.8527.127274 66.072 2.81994 66.072 6.12727 66.072 9.43461 68.8527 12.1273 72.16 12.1273 73.9447 12.1273 75.2914 11.5419 76.3454 10.4446 77.428 9.36127 77.7647 7.83927 77.7647 6.60994 77.7647 6.22994 77.7354 5.87861 77.6767 5.58594H72.16ZM82.6666 4.25461C80.5253 4.25461 78.7793 5.88328 78.7793 8.12727 78.7793 10.3566 80.5253 11.9999 82.6666 11.9999 84.8086 11.9999 86.554 10.3566 86.554 8.12727 86.554 5.88328 84.8086 4.25461 82.6666 4.25461ZM82.6666 10.4739C81.4933 10.4739 80.4806 9.50594 80.4806 8.12727 80.4806 6.73394 81.4933 5.77994 82.6666 5.77994 83.84 5.77994 84.8526 6.73394 84.8526 8.12727 84.8526 9.50594 83.84 10.4739 82.6666 10.4739ZM101.72 5.12061H101.661C101.279 4.66528 100.546 4.25461 99.622 4.25461 97.686 4.25461 96 5.94127 96 8.12727 96 10.2979 97.686 11.9999 99.622 11.9999 100.546 11.9999 101.279 11.5893 101.661 11.1199H101.72V11.6613C101.72 13.1426 100.928 13.9346 99.6513 13.9346 98.61 13.9346 97.9647 13.1866 97.7007 12.5559L96.2193 13.1719C96.6447 14.1986 97.774 15.4606 99.6513 15.4606 101.647 15.4606 103.333 14.2873 103.333 11.4266V4.45394H101.72V5.12061ZM99.7693 10.4739C98.596 10.4739 97.702 9.47661 97.702 8.12727 97.702 6.76328 98.596 5.77994 99.7693 5.77994 100.929 5.77994 101.837 6.77794 101.837 8.14194 101.837 9.49127 100.929 10.4739 99.7693 10.4739ZM91.3334 4.25461C89.192 4.25461 87.446 5.88328 87.446 8.12727 87.446 10.3566 89.192 11.9999 91.3334 11.9999 93.4754 11.9999 95.2207 10.3566 95.2207 8.12727 95.2207 5.88328 93.4754 4.25461 91.3334 4.25461ZM91.3334 10.4739C90.16 10.4739 89.148 9.50594 89.148 8.12727 89.148 6.73394 90.16 5.77994 91.3334 5.77994 92.5067 5.77994 93.5194 6.73394 93.5194 8.12727 93.5194 9.50594 92.5067 10.4739 91.3334 10.4739ZM104.667.287277H106.34V11.9999H104.667V.287277ZM111.51 10.4739C110.645 10.4739 110.029 10.0786 109.632 9.30127L114.81 7.15928 114.634 6.71927C114.311 5.85394 113.329 4.25461 111.319 4.25461 109.324 4.25461 107.667 5.82461 107.667 8.12727 107.667 10.2986 109.309 11.9999 111.51 11.9999 113.285 11.9999 114.311 10.9146 114.737 10.2833L113.417 9.40328C112.977 10.0493 112.375 10.4739 111.51 10.4739ZM111.384 5.70594C112.073 5.70594 112.656 6.05661 112.851 6.55994L109.353 8.00994C109.353 6.37727 110.508 5.70594 111.384 5.70594Z" fill="currentColor"/><g fill="currentColor"><path d="M6.17578 8.90039C6.17578 9.86523 5.95508 10.6426 5.51367 11.2324 5.07227 11.8223 4.47461 12.1172 3.7207 12.1172 2.95117 12.1172 2.3457 11.873 1.9043 11.3848V14.4375H.820312V5.66016H1.81055L1.86328 6.36328C2.30469 5.81641 2.91797 5.54297 3.70312 5.54297 4.46484 5.54297 5.06641 5.83008 5.50781 6.4043 5.95312 6.97852 6.17578 7.77734 6.17578 8.80078V8.90039ZM5.0918 8.77734C5.0918 8.0625 4.93945 7.49805 4.63477 7.08398 4.33008 6.66992 3.91211 6.46289 3.38086 6.46289 2.72461 6.46289 2.23242 6.75391 1.9043 7.33594V10.3652C2.22852 10.9434 2.72461 11.2324 3.39258 11.2324 3.91211 11.2324 4.32422 11.0273 4.62891 10.6172 4.9375 10.2031 5.0918 9.58984 5.0918 8.77734ZM7.27148 8.77148C7.27148 8.15039 7.39258 7.5918 7.63477 7.0957 7.88086 6.59961 8.2207 6.2168 8.6543 5.94727 9.0918 5.67773 9.58984 5.54297 10.1484 5.54297 11.0117 5.54297 11.709 5.8418 12.2402 6.43945 12.7754 7.03711 13.043 7.83203 13.043 8.82422V8.90039C13.043 9.51758 12.9238 10.0723 12.6855 10.5645 12.4512 11.0527 12.1133 11.4336 11.6719 11.707 11.2344 11.9805 10.7305 12.1172 10.1602 12.1172 9.30078 12.1172 8.60352 11.8184 8.06836 11.2207 7.53711 10.623 7.27148 9.83203 7.27148 8.84766V8.77148ZM8.36133 8.90039C8.36133 9.60352 8.52344 10.168 8.84766 10.5938 9.17578 11.0195 9.61328 11.2324 10.1602 11.2324 10.7109 11.2324 11.1484 11.0176 11.4727 10.5879 11.7969 10.1543 11.959 9.54883 11.959 8.77148 11.959 8.07617 11.793 7.51367 11.4609 7.08398 11.1328 6.65039 10.6953 6.43359 10.1484 6.43359 9.61328 6.43359 9.18164 6.64648 8.85352 7.07227 8.52539 7.49805 8.36133 8.10742 8.36133 8.90039ZM20.0156 10.5059 21.2344 5.66016H22.3184L20.4727 12H19.5938L18.0527 7.19531 16.5527 12H15.6738L13.834 5.66016H14.9121L16.1602 10.4062 17.6367 5.66016H18.5098L20.0156 10.5059ZM26.0566 12.1172C25.1973 12.1172 24.498 11.8359 23.959 11.2734 23.4199 10.707 23.1504 9.95117 23.1504 9.00586V8.80664C23.1504 8.17773 23.2695 7.61719 23.5078 7.125 23.75 6.62891 24.0859 6.24219 24.5156 5.96484 24.9492 5.68359 25.418 5.54297 25.9219 5.54297 26.7461 5.54297 27.3867 5.81445 27.8438 6.35742 28.3008 6.90039 28.5293 7.67773 28.5293 8.68945V9.14062H24.2344C24.25 9.76562 24.4316 10.2715 24.7793 10.6582 25.1309 11.041 25.5762 11.2324 26.1152 11.2324 26.498 11.2324 26.8223 11.1543 27.0879 10.998 27.3535 10.8418 27.5859 10.6348 27.7852 10.377L28.4473 10.8926C27.916 11.709 27.1191 12.1172 26.0566 12.1172ZM25.9219 6.43359C25.4844 6.43359 25.1172 6.59375 24.8203 6.91406 24.5234 7.23047 24.3398 7.67578 24.2695 8.25H27.4453V8.16797C27.4141 7.61719 27.2656 7.19141 27 6.89062 26.7344 6.58594 26.375 6.43359 25.9219 6.43359ZM32.8535 6.63281C32.6895 6.60547 32.5117 6.5918 32.3203 6.5918 31.6094 6.5918 31.127 6.89453 30.873 7.5V12H29.7891V5.66016H30.8438L30.8613 6.39258C31.2168 5.82617 31.7207 5.54297 32.373 5.54297 32.584 5.54297 32.7441 5.57031 32.8535 5.625V6.63281ZM36.3691 12.1172C35.5098 12.1172 34.8105 11.8359 34.2715 11.2734 33.7324 10.707 33.4629 9.95117 33.4629 9.00586V8.80664C33.4629 8.17773 33.582 7.61719 33.8203 7.125 34.0625 6.62891 34.3984 6.24219 34.8281 5.96484 35.2617 5.68359 35.7305 5.54297 36.2344 5.54297 37.0586 5.54297 37.6992 5.81445 38.1562 6.35742 38.6133 6.90039 38.8418 7.67773 38.8418 8.68945V9.14062H34.5469C34.5625 9.76562 34.7441 10.2715 35.0918 10.6582 35.4434 11.041 35.8887 11.2324 36.4277 11.2324 36.8105 11.2324 37.1348 11.1543 37.4004 10.998 37.666 10.8418 37.8984 10.6348 38.0977 10.377L38.7598 10.8926C38.2285 11.709 37.4316 12.1172 36.3691 12.1172ZM36.2344 6.43359C35.7969 6.43359 35.4297 6.59375 35.1328 6.91406 34.8359 7.23047 34.6523 7.67578 34.582 8.25H37.7578V8.16797C37.7266 7.61719 37.5781 7.19141 37.3125 6.89062 37.0469 6.58594 36.6875 6.43359 36.2344 6.43359ZM39.8379 8.77734C39.8379 7.80469 40.0684 7.02344 40.5293 6.43359 40.9902 5.83984 41.5938 5.54297 42.3398 5.54297 43.082 5.54297 43.6699 5.79688 44.1035 6.30469V3H45.1875V12H44.1914L44.1387 11.3203C43.7051 11.8516 43.1016 12.1172 42.3281 12.1172 41.5938 12.1172 40.9941 11.8164 40.5293 11.2148 40.0684 10.6133 39.8379 9.82812 39.8379 8.85938V8.77734ZM40.9219 8.90039C40.9219 9.61914 41.0703 10.1816 41.3672 10.5879 41.6641 10.9941 42.0742 11.1973 42.5977 11.1973 43.2852 11.1973 43.7871 10.8887 44.1035 10.2715V7.35938C43.7793 6.76172 43.2812 6.46289 42.6094 6.46289 42.0781 6.46289 41.6641 6.66797 41.3672 7.07812 41.0703 7.48828 40.9219 8.0957 40.9219 8.90039ZM55.2188 8.90039C55.2188 9.86914 54.9961 10.6484 54.5508 11.2383 54.1055 11.8242 53.5078 12.1172 52.7578 12.1172 51.957 12.1172 51.3379 11.834 50.9004 11.2676L50.8477 12H49.8516V3H50.9355V6.35742C51.373 5.81445 51.9766 5.54297 52.7461 5.54297 53.5156 5.54297 54.1191 5.83398 54.5566 6.41602 54.998 6.99805 55.2188 7.79492 55.2188 8.80664V8.90039ZM54.1348 8.77734C54.1348 8.03906 53.9922 7.46875 53.707 7.06641 53.4219 6.66406 53.0117 6.46289 52.4766 6.46289 51.7617 6.46289 51.248 6.79492 50.9355 7.45898V10.2012C51.2676 10.8652 51.7852 11.1973 52.4883 11.1973 53.0078 11.1973 53.4121 10.9961 53.7012 10.5938 53.9902 10.1914 54.1348 9.58594 54.1348 8.77734ZM58.5938 10.4121 60.0703 5.66016H61.2305L58.6816 12.9785C58.2871 14.0332 57.6602 14.5605 56.8008 14.5605L56.5957 14.543 56.1914 14.4668V13.5879L56.4844 13.6113C56.8516 13.6113 57.1367 13.5371 57.3398 13.3887 57.5469 13.2402 57.7168 12.9688 57.8496 12.5742L58.0898 11.9297 55.8281 5.66016H57.0117L58.5938 10.4121Z"/></g></symbol><symbol id="favicon"><path id="favicon" d="M262.562 8.28859V24.4295V56.7114L221.428 97.2819V121.711L213.113 130H237.619L262.125 154.43V178.859L253.81 186.711H212.676V178.859H179.855V211.141H212.676V202.852H253.81L262.125 211.141V235.57L237.619 260H155.787L131.281 234.698V153.993L155.787 129.564H180.293L171.978 121.275V96.8456L131.281 56.7114V121.275L122.967 129.564H90.1464L49.0116 88.9933V121.275L40.6972 129.564H8.31448L0 121.275V7.85235L8.31448 0H41.1348L82.2695 40.5705V8.28859L90.1464 0H122.967L131.281 8.28859L139.596 0H172.416L180.73 8.28859V24.4295L196.922 40.5705L213.551 24.4295V8.28859L221.428 0H254.248L262.562 8.28859ZM257.311 140.47C254.248 140.47 251.622 138.289 251.622 134.799C251.622 131.309 254.248 129.128 257.311 129.128C260.374 129.128 263 131.309 263 134.799C262.562 138.289 259.937 140.47 257.311 140.47ZM257.311 130.436C254.686 130.436 252.935 132.181 252.935 134.799C252.935 137.416 254.686 139.597 257.311 139.597C259.937 139.597 261.687 137.852 261.687 134.799C261.25 132.181 259.499 130.436 257.311 130.436ZM255.998 138.289H255.123V132.181H257.311C258.624 132.181 259.499 132.617 259.499 133.926C259.499 135.235 258.624 135.671 257.749 135.671L259.499 138.289H258.186L256.436 135.671H255.561V138.289H255.998ZM257.311 134.799C258.186 134.799 258.624 134.799 258.624 133.926C258.624 133.054 257.749 133.054 257.311 133.054H255.998V134.799H257.311Z"/><style>#favicon{fill:#217ceb}@media (prefers-color-scheme:light){#favicon{fill:#004cbe}}</style></symbol></svg>