<svg width="48" height="48" viewBox="0 0 48 48" fill="none" xmlns="http://www.w3.org/2000/svg">
<path d="M24 47.9998C37.2548 47.9998 48 37.2546 48 23.9998C48 10.7449 37.2548 -0.000244141 24 -0.000244141C10.7452 -0.000244141 0 10.7449 0 23.9998C0 37.2546 10.7452 47.9998 24 47.9998Z" fill="#53B3FC"/>
<path d="M24 43.9998C35.0457 43.9998 44 35.0455 44 23.9998C44 12.9541 35.0457 3.99976 24 3.99976C12.9543 3.99976 4 12.9541 4 23.9998C4 35.0455 12.9543 43.9998 24 43.9998Z" fill="#004CBE"/>
<path d="M12.16 16.3098H35.24C36.48 16.3098 37.49 17.3198 37.49 18.5598V29.3798C37.49 30.6198 36.48 31.6298 35.24 31.6298H12.75C11.51 31.6298 10.5 30.6198 10.5 29.3798V17.9698C10.5 17.0498 11.24 16.3098 12.16 16.3098Z" fill="white"/>
<path d="M34.76 24.827C34.76 22.107 32.55 19.897 29.83 19.897C27.11 19.897 24.9 22.107 24.9 24.827C24.9 26.537 25.77 28.037 27.09 28.917V34.757C27.09 34.947 27.25 35.077 27.4 35.007L29.74 33.897C29.79 33.867 29.85 33.867 29.91 33.897L32.25 35.007C32.4 35.077 32.56 34.947 32.56 34.757V28.917C33.88 28.037 34.75 26.527 34.75 24.827H34.76Z" fill="#004CBE" stroke="#53B3FC" stroke-width="1.24" stroke-miterlimit="10"/>
<path d="M13.78 21.0498H22.04" stroke="#004CBE" stroke-width="1.46" stroke-miterlimit="10"/>
<path d="M13.78 23.9199H22.17" stroke="#004CBE" stroke-width="1.46" stroke-miterlimit="10"/>
<path d="M13.78 26.7798H22.04" stroke="#004CBE" stroke-width="1.46" stroke-miterlimit="10"/>
</svg>
