<svg width="48" height="48" viewBox="0 0 48 48" fill="none" xmlns="http://www.w3.org/2000/svg">
<path d="M7.16 12H40.25C41.49 12 42.5 13.01 42.5 14.25V30.74C42.5 31.98 41.49 32.99 40.25 32.99H7.75C6.51 32.99 5.5 31.98 5.5 30.74V13.66C5.5 12.74 6.24 12 7.16 12V12Z" fill="#53B3FC"/>
<path d="M38.75 23.3572C38.75 19.6272 35.73 16.6072 32 16.6072C28.27 16.6072 25.25 19.6272 25.25 23.3572C25.25 25.6972 26.44 27.7572 28.25 28.9672V36.9772C28.25 37.2372 28.47 37.4172 28.68 37.3272L31.89 35.8072C31.96 35.7772 32.05 35.7772 32.12 35.8072L35.33 37.3272C35.53 37.4272 35.76 37.2472 35.76 36.9772V28.9672C37.57 27.7572 38.76 25.6972 38.76 23.3572H38.75Z" fill="#004CBE"/>
<path d="M10 18.5H21.32" stroke="white" stroke-width="2" stroke-miterlimit="10"/>
<path d="M10 22.4299H21.5" stroke="white" stroke-width="2" stroke-miterlimit="10"/>
<path d="M10 26.3501H21.32" stroke="white" stroke-width="2" stroke-miterlimit="10"/>
</svg>
