<svg viewBox="0 0 48 48" fill="none" xmlns="http://www.w3.org/2000/svg">
  <path d="M25.9999 46H2.99995V31.1685L14.4999 23L25.8544 31.0124L25.9999 31.1685V46Z" fill="currentColor"/>
  <path d="M7.99987 39.0005L7.99987 43.0005L11.9999 43.0005L11.9999 39.0005L7.99987 39.0005Z" fill="white"/>
  <path d="M7.99987 31L7.99987 35L11.9999 35L11.9999 31L7.99987 31Z" fill="white"/>
  <path d="M16 39.0005L16 43.0005L20 43.0005L20 39.0005L16 39.0005Z" fill="white"/>
  <path d="M16 31L16 35L20 35L20 31L16 31Z" fill="white"/>
  <path d="M42.9999 4.00024H23.9999V46.0002H42.9999V4.00024Z" />
  <path d="M39.9999 39.0002H35.9999V43.0002H39.9999V39.0002Z" fill="white"/>
  <path d="M30.9999 39.0002H26.9999V43.0002H30.9999V39.0002Z" fill="white"/>
  <path d="M39.9999 31H35.9999V35H39.9999V31Z" fill="white"/>
  <path d="M30.9999 31H26.9999V35H30.9999V31Z" fill="white"/>
  <path d="M39.9999 23H35.9999V27H39.9999V23Z" fill="white"/>
  <path d="M30.9999 23H26.9999V27H30.9999V23Z" fill="white"/>
  <path d="M39.9999 15H35.9999V19H39.9999V15Z" fill="white"/>
  <path d="M30.9999 15H26.9999V19H30.9999V15Z" fill="white"/>
  <path d="M39.9999 7H35.9999V11H39.9999V7Z" fill="white"/>
  <path d="M30.9999 7H26.9999V11H30.9999V7Z" fill="white"/>
  <rect x="22" y="2" width="23" height="2" />
</svg>
